<?xml version="1.0" encoding="UTF-8"?>
<svg version="1.1" xmlns="http://www.w3.org/2000/svg" width="1024" height="1024">
<path d="M0 0 C7.94452408 7.73545765 11.93014315 17.79608061 15.3203125 28.21875 C16.42717016 31.46553247 17.73890764 34.55016192 19.125 37.6875 C21.71229397 43.61104147 24.02294618 49.6086768 26.25366211 55.67431641 C27.87005676 60.04379268 29.61808612 64.30635257 31.61328125 68.515625 C33.49978567 72.96584056 33.99431203 77.51956345 33.375 82.3125 C30.79424852 88.65684738 27.31605612 91.15582407 21.375 94.3125 C18.59017593 95.47120907 15.7601885 96.37586474 12.875 97.25 C11.29213751 97.75259794 9.71012072 98.25786605 8.12890625 98.765625 C7.33758301 99.01892578 6.54625977 99.27222656 5.73095703 99.53320312 C0.80054006 101.16407266 -4.03217709 103.05620929 -8.87890625 104.91796875 C-12.3229605 106.20006194 -15.78122776 107.37974153 -19.27075195 108.52905273 C-23.34422473 109.88462404 -27.38868034 111.32282835 -31.4375 112.75 C-37.02650087 114.71608104 -42.61814402 116.65923774 -48.25 118.5 C-52.60302641 119.93271878 -56.82700743 121.57604224 -61.06640625 123.3125 C-64.87869924 124.80249543 -68.76337536 126.05083972 -72.65234375 127.32421875 C-75.32894067 128.21407292 -77.97791574 129.15150266 -80.625 130.125 C-85.93844209 132.07892565 -91.2796641 133.94814514 -96.625 135.8125 C-109.04817972 140.05423237 -109.04817972 140.05423237 -121.25 144.875 C-123.76477085 145.9461061 -126.18508949 146.86145757 -128.7734375 147.70703125 C-133.40793251 149.23606742 -138.01938753 150.8237542 -142.625 152.4375 C-143.88848267 152.87993042 -143.88848267 152.87993042 -145.17749023 153.33129883 C-158.32274071 157.94816147 -171.42460174 162.68884344 -184.515625 167.45703125 C-188.10701442 168.76471819 -191.70687452 170.04458774 -195.3125 171.3125 C-199.33610073 172.77040954 -203.1194683 174.44510442 -206.90234375 176.44140625 C-208.625 177.3125 -208.625 177.3125 -211.5625 178.375 C-212.243125 178.684375 -212.92375 178.99375 -213.625 179.3125 C-213.955 180.3025 -214.285 181.2925 -214.625 182.3125 C-214.08173787 182.31309709 -213.53847574 182.31369418 -212.97875112 182.31430936 C-180.77891019 182.35020515 -148.57918216 182.40684689 -116.37943157 182.49042095 C-112.51296453 182.50043838 -108.64649706 182.51028252 -104.7800293 182.52001953 C-104.01028686 182.5219609 -103.24054442 182.52390228 -102.44747645 182.52590248 C-89.98474671 182.55692158 -77.52203538 182.57390288 -65.05927431 182.58569422 C-52.27083763 182.59810625 -39.48249758 182.62560881 -26.6941219 182.66711307 C-18.80330522 182.69224704 -10.9126488 182.70561736 -3.02179153 182.70392957 C3.02947002 182.70389629 9.0804732 182.72486097 15.13167381 182.75366783 C17.61367017 182.762194 20.09570069 182.76389844 22.57770538 182.75830269 C25.96500911 182.75168253 29.35133535 182.76953753 32.73854065 182.79351807 C33.72201542 182.78575765 34.70549019 182.77799723 35.71876723 182.77000165 C41.80481476 182.84634013 45.38482895 183.77074626 50.375 187.3125 C57.71466643 194.85604605 57.81087099 202.52147973 57.76268005 212.52568054 C57.76685599 213.87610864 57.77233493 215.22653322 57.77899987 216.57695132 C57.79343998 220.27775497 57.78921426 223.97833564 57.78183305 227.67915142 C57.77709995 231.67454479 57.78961269 235.66989003 57.79985046 239.66526794 C57.81704271 247.48965293 57.81787736 255.31395762 57.81263756 263.13835659 C57.80859437 269.5006049 57.8100412 275.8628295 57.81538582 282.22507668 C57.81613424 283.13098206 57.81688266 284.03688744 57.81765376 284.9702445 C57.81918527 286.81070099 57.82072362 288.65115748 57.82226873 290.49161396 C57.83599604 307.75078177 57.83055512 325.00990425 57.81908352 342.26907102 C57.80915733 358.04535546 57.82208077 373.82152251 57.84601771 389.59778883 C57.87042561 405.80697847 57.88001203 422.01611347 57.87336498 438.22532111 C57.86987569 447.32139327 57.87208532 456.41737522 57.88961601 465.51343346 C57.9043594 473.25926363 57.90494589 481.00494014 57.8875451 488.75076737 C57.87904906 492.69964348 57.87685094 496.64824533 57.89219666 500.59710693 C57.90609651 504.21891216 57.90121351 507.84020956 57.88195742 511.4619858 C57.87645232 513.37845755 57.89042498 515.29495549 57.90531152 517.21137732 C57.81838939 527.50399887 55.82971067 537.04240196 49.375 545.3125 C48.715 546.17875 48.055 547.045 47.375 547.9375 C45.45926532 550.21243493 43.61901312 552.35803696 41.375 554.3125 C40.385 554.3125 39.395 554.3125 38.375 554.3125 C38.375 554.9725 38.375 555.6325 38.375 556.3125 C36.7720947 557.12748562 35.16762722 557.93939927 33.5625 558.75 C32.66917969 559.20246094 31.77585937 559.65492188 30.85546875 560.12109375 C26.94898917 561.99743434 24.0358039 562.44024889 19.74508762 562.4523077 C18.56564376 562.45799894 17.3861999 562.46369018 16.17101532 562.46955389 C14.86890781 562.47073376 13.5668003 562.47191364 12.22523499 562.47312927 C10.83288936 562.47785953 9.44054511 562.48301035 8.04820246 562.48854691 C4.21301748 562.502466 0.377842 562.5100403 -3.45736182 562.5165199 C-6.74484518 562.52288777 -10.03231291 562.5329584 -13.31978654 562.54308056 C-24.15321157 562.57642 -34.98664611 562.59793072 -45.82010564 562.61628041 C-48.64149293 562.62107531 -51.46287983 562.62605866 -54.28426671 562.63108563 C-71.80616422 562.66206072 -89.32806504 562.68874544 -106.84998226 562.70550442 C-110.90950972 562.70945391 -114.96903712 562.7134569 -119.02856445 562.7175293 C-120.03753863 562.71853766 -121.04651281 562.71954602 -122.08606196 562.72058494 C-138.42198532 562.73758297 -154.75775696 562.77868135 -171.09360629 562.82955229 C-187.86766282 562.8813577 -204.64164141 562.91045069 -221.41577727 562.9177013 C-230.83279979 562.92236028 -240.24957401 562.93707692 -249.66651726 562.9774456 C-257.6887802 563.01179369 -265.71075004 563.0256657 -273.73308229 563.01302146 C-277.82384079 563.0072054 -281.91397982 563.01098318 -286.00464439 563.0411911 C-289.75630372 563.06866842 -293.50690688 563.06797034 -297.25859088 563.04568065 C-299.24488899 563.04096399 -301.23119139 563.0656311 -303.21732467 563.09164995 C-313.34917072 562.98583497 -321.85344246 559.97993469 -329.625 553.3125 C-329.625 552.6525 -329.625 551.9925 -329.625 551.3125 C-330.2025 551.085625 -330.78 550.85875 -331.375 550.625 C-338.42908304 546.51011823 -341.8246479 537.67041883 -344.00111067 530.16219926 C-345.10515689 525.11931817 -345.02621361 520.12891489 -344.98576355 514.98654175 C-344.98832682 513.78151666 -344.9908901 512.57649157 -344.99353105 511.33495057 C-344.99759589 508.01668139 -344.98830587 504.69895138 -344.97319686 501.3807478 C-344.9601758 497.79261527 -344.96463023 494.20449779 -344.96690369 490.61634827 C-344.9684726 484.40845723 -344.95910346 478.20066118 -344.94219017 471.99279404 C-344.91775278 463.01740534 -344.90999006 454.04206232 -344.9062262 445.06664397 C-344.89966913 430.50273665 -344.87972823 415.93887989 -344.85131836 401.375 C-344.82375848 387.23209892 -344.80253435 373.0892116 -344.78979492 358.94628906 C-344.78900675 358.07372659 -344.78821858 357.20116412 -344.78740653 356.30216037 C-344.78349126 351.92453392 -344.77970017 347.54690738 -344.77597082 343.16928077 C-344.74489811 306.88365149 -344.69208265 270.59807969 -344.625 234.3125 C-346.0488501 234.08965332 -346.0488501 234.08965332 -347.50146484 233.86230469 C-352.71369198 232.94484842 -356.31334199 230.69505844 -359.9375 226.875 C-363.30476073 221.76175222 -364.11296984 216.82867799 -364.6875 210.8125 C-364.77201416 209.9771875 -364.85652832 209.141875 -364.94360352 208.28125 C-365.6004079 201.43162752 -365.9049412 194.58909603 -366.15820312 187.71484375 C-366.47389283 180.36301915 -367.29851067 173.11454532 -368.1875 165.8125 C-369.19842279 157.3392601 -369.91859181 148.97492742 -369.9375 140.4375 C-369.94535522 139.15456055 -369.94535522 139.15456055 -369.95336914 137.84570312 C-369.90413848 133.56220037 -369.60704686 130.21342091 -367.625 126.3125 C-366.965 126.3125 -366.305 126.3125 -365.625 126.3125 C-365.563125 125.735 -365.50125 125.1575 -365.4375 124.5625 C-364.24990332 121.27377073 -362.51163368 120.29051712 -359.625 118.3125 C-356.66805327 117.00933895 -353.63180817 116.00471653 -350.5625 115 C-348.77200957 114.39490351 -346.98164876 113.78942335 -345.19140625 113.18359375 C-343.8149292 112.72315674 -343.8149292 112.72315674 -342.41064453 112.25341797 C-337.11978128 110.46630255 -331.86310572 108.58039601 -326.60131836 106.7097168 C-321.70093147 104.98545901 -316.77593337 103.43308374 -311.78198242 102.00097656 C-308.89669966 101.08003741 -306.31896961 99.68814406 -303.625 98.3125 C-302.28653196 97.83038222 -300.93900569 97.37307153 -299.5859375 96.93359375 C-298.78824951 96.67239746 -297.99056152 96.41120117 -297.16870117 96.14208984 C-296.32927979 95.8683252 -295.4898584 95.59456055 -294.625 95.3125 C-292.94099665 94.75253239 -291.25740827 94.19131541 -289.57421875 93.62890625 C-288.71658936 93.34305664 -287.85895996 93.05720703 -286.9753418 92.76269531 C-285.15773149 92.15676966 -283.34018885 91.55064102 -281.52270508 90.94433594 C-277.64158379 89.64983145 -273.7599909 88.35707512 -269.875 87.07421875 C-268.864375 86.74035156 -267.85375 86.40648437 -266.8125 86.0625 C-265.56533203 85.65257812 -265.56533203 85.65257812 -264.29296875 85.234375 C-261.44731913 84.25110515 -258.62986022 83.20092348 -255.81323242 82.13769531 C-251.94437941 80.67872809 -248.06579955 79.24612485 -244.1875 77.8125 C-242.99543945 77.36970703 -242.99543945 77.36970703 -241.77929688 76.91796875 C-237.16486827 75.21337104 -232.53238414 73.59432688 -227.8605957 72.05419922 C-224.03841859 70.78612298 -220.23829505 69.4555487 -216.4375 68.125 C-215.58816895 67.82819336 -214.73883789 67.53138672 -213.86376953 67.22558594 C-206.31974754 64.57851245 -198.80792249 61.84533058 -191.31176758 59.06567383 C-186.17012493 57.175144 -181.01680712 55.48197122 -175.74682617 53.98339844 C-172.87184772 53.07436141 -170.30679077 51.68192508 -167.625 50.3125 C-165.5348525 49.55323974 -163.42630247 48.87383637 -161.30859375 48.1953125 C-156.95252366 46.76231128 -152.65521344 45.16563052 -148.34765625 43.59375 C-145.49242461 42.61104698 -142.65149545 41.71021042 -139.7578125 40.85546875 C-134.92783883 39.4249395 -130.18294868 37.81231419 -125.4375 36.125 C-123.69667993 35.51153328 -121.95579161 34.89826021 -120.21484375 34.28515625 C-119.30976074 33.96562988 -118.40467773 33.64610352 -117.47216797 33.31689453 C-112.48427281 31.55731635 -107.49293056 29.80773201 -102.5 28.0625 C-101.56518799 27.73354736 -100.63037598 27.40459473 -99.66723633 27.06567383 C-94.38975532 25.22210894 -89.09872477 23.51927851 -83.72314453 21.98339844 C-81.42091493 21.3064289 -81.42091493 21.3064289 -78.625 19.8125 C-75.24600527 18.12300263 -71.91008801 17.15472664 -68.2890625 16.11328125 C-65.75316678 15.3510252 -63.29300012 14.48776592 -60.8125 13.5625 C-54.48939443 11.21596507 -48.08517236 9.12771506 -41.67431641 7.03588867 C-36.75366014 5.41443772 -31.94431091 3.6624402 -27.15844727 1.68066406 C-18.28735237 -1.94557317 -9.06288665 -4.21892999 0 0 Z M-63.3125 36.625 C-64.14136719 36.86863281 -64.97023438 37.11226563 -65.82421875 37.36328125 C-68.68189942 38.28604114 -68.68189942 38.28604114 -71.5703125 39.609375 C-77.50344741 42.20346046 -83.68911213 44.15925724 -89.8125 46.25 C-91.07625119 46.68401392 -92.33992361 47.11825726 -93.60351562 47.55273438 C-100.42392549 49.89247935 -107.25418681 52.19750726 -114.10571289 54.44458008 C-117.36647588 55.56794595 -120.48638434 56.88585652 -123.625 58.3125 C-120.2048883 62.16012566 -116.15725744 64.91884022 -111.625 67.3125 C-110.965 67.3125 -110.305 67.3125 -109.625 67.3125 C-109.625 67.9725 -109.625 68.6325 -109.625 69.3125 C-108.25617511 70.25087681 -106.88054247 71.18035412 -105.47851562 72.06835938 C-101.13119154 74.98642623 -97.206588 78.52961183 -93.1953125 81.88671875 C-92.50695312 82.45519531 -91.81859375 83.02367187 -91.109375 83.609375 C-90.48772461 84.12854492 -89.86607422 84.64771484 -89.22558594 85.18261719 C-87.67921727 86.50473426 -87.67921727 86.50473426 -85.625 86.3125 C-85.295 87.3025 -84.965 88.2925 -84.625 89.3125 C-82.33960724 91.14239883 -82.33960724 91.14239883 -79.625 92.875 C-74.72574231 96.11101538 -74.72574231 96.11101538 -73.625 98.3125 C-70.40019994 100.78779241 -70.40019994 100.78779241 -66.5 101.08203125 C-62.5493873 100.02459823 -58.72583152 98.68545812 -54.875 97.3125 C-54.01245605 97.00779785 -53.14991211 96.7030957 -52.26123047 96.38916016 C-41.96511782 92.74288653 -31.6930868 89.02877865 -21.41943359 85.31982422 C-15.82621071 83.30360566 -10.22618382 81.30648136 -4.625 79.3125 C-5.94710291 76.3006398 -7.25889503 74.50709869 -9.828125 72.46484375 C-10.47136719 71.94792969 -11.11460937 71.43101562 -11.77734375 70.8984375 C-12.81568359 70.08246094 -12.81568359 70.08246094 -13.875 69.25 C-14.59300781 68.67636719 -15.31101562 68.10273438 -16.05078125 67.51171875 C-18.23555341 65.77006616 -20.42853398 64.03937326 -22.625 62.3125 C-23.24052734 61.82797363 -23.85605469 61.34344727 -24.49023438 60.84423828 C-26.76134805 59.05824771 -29.03387116 57.27412146 -31.31103516 55.49584961 C-36.69797782 51.28168445 -42.00241793 46.96820404 -47.296875 42.63867188 C-54.39358069 36.11970942 -54.39358069 36.11970942 -63.3125 36.625 Z M-211.625 89.3125 C-212.98014163 89.8078841 -214.34601251 90.27444603 -215.71875 90.71875 C-216.91431519 91.10897339 -216.91431519 91.10897339 -218.1340332 91.50708008 C-218.95605225 91.77286865 -219.77807129 92.03865723 -220.625 92.3125 C-237.76985913 97.93104334 -254.73925433 103.95828212 -271.625 110.3125 C-270.965 110.6425 -270.305 110.9725 -269.625 111.3125 C-269.625 111.9725 -269.625 112.6325 -269.625 113.3125 C-267.44748821 114.91027524 -267.44748821 114.91027524 -264.75 116.4375 C-263.84507812 116.97632813 -262.94015625 117.51515625 -262.0078125 118.0703125 C-259.77727978 119.4665893 -259.77727978 119.4665893 -257.625 119.3125 C-257.625 119.9725 -257.625 120.6325 -257.625 121.3125 C-256.25617511 122.25087681 -254.88054247 123.18035412 -253.47851562 124.06835938 C-249.13119154 126.98642623 -245.206588 130.52961183 -241.1953125 133.88671875 C-240.50695312 134.45519531 -239.81859375 135.02367187 -239.109375 135.609375 C-238.48772461 136.12854492 -237.86607422 136.64771484 -237.22558594 137.18261719 C-235.67921727 138.50473426 -235.67921727 138.50473426 -233.625 138.3125 C-233.625 138.9725 -233.625 139.6325 -233.625 140.3125 C-227.18429304 146.60928054 -219.00662011 150.51090405 -209.9921875 150.63671875 C-203.62539115 150.54113878 -198.40633842 149.009213 -192.5 146.75 C-191.51370605 146.39010986 -190.52741211 146.03021973 -189.51123047 145.65942383 C-186.53969554 144.56720858 -183.5808941 143.44629509 -180.625 142.3125 C-179.74779297 141.97669922 -178.87058594 141.64089844 -177.96679688 141.29492188 C-174.85456885 140.09791109 -171.74434097 138.89738993 -168.64794922 137.65991211 C-164.35323591 135.94546089 -160.02739738 134.41483308 -155.6328125 132.9753418 C-153.42111927 132.24519258 -151.23831554 131.45576593 -149.0625 130.625 C-147.928125 130.191875 -146.79375 129.75875 -145.625 129.3125 C-145.625 128.3225 -145.625 127.3325 -145.625 126.3125 C-146.2334375 126.01859375 -146.841875 125.7246875 -147.46875 125.421875 C-156.87725744 120.60693296 -166.88601644 114.34531529 -174.21289062 106.64331055 C-175.54418366 105.08388424 -175.54418366 105.08388424 -177.625 105.3125 C-178.12 103.8275 -178.12 103.8275 -178.625 102.3125 C-180.92854419 100.53589155 -183.21995928 98.87624308 -185.625 97.25 C-192.5014003 92.5596994 -192.5014003 92.5596994 -193.625 90.3125 C-195.27321244 89.28236723 -196.94003702 88.28135372 -198.625 87.3125 C-199.12 86.8175 -199.12 86.8175 -199.625 86.3125 C-204.58924374 85.85070988 -207.2861727 87.01547378 -211.625 89.3125 Z M-333.625 150.3125 C-334.64771099 155.39285003 -334.7440802 160.82518589 -332.58984375 165.61328125 C-329.00732078 170.27355486 -324.34921467 172.37180738 -318.625 173.3125 C-312.572922 173.10734481 -307.75171144 171.49731831 -303.48046875 167.109375 C-301.24829347 163.74466447 -301.08756391 161.81816193 -301.125 157.8125 C-301.1146875 156.7090625 -301.104375 155.605625 -301.09375 154.46875 C-301.95723358 149.33864169 -304.67857359 147.01285554 -308.75 144 C-317.8811611 139.19928226 -327.37424564 142.67121766 -333.625 150.3125 Z M-204.625 247.3125 C-205.49769531 247.98925781 -206.37039063 248.66601562 -207.26953125 249.36328125 C-210.13114338 251.73134834 -212.2785093 254.43804889 -214.625 257.3125 C-215.429375 258.09625 -216.23375 258.88 -217.0625 259.6875 C-223.61162673 266.39636153 -227.68762345 273.8492803 -231.625 282.3125 C-232.2746875 283.57900391 -232.2746875 283.57900391 -232.9375 284.87109375 C-245.4293343 311.14298276 -245.59549613 346.70273388 -236.38671875 373.98046875 C-235.24310197 376.83065917 -233.99601654 379.56602997 -232.625 382.3125 C-232.31949219 382.99699219 -232.01398438 383.68148437 -231.69921875 384.38671875 C-227.76398698 392.93327938 -222.36551153 400.77788834 -215.625 407.3125 C-214.63035302 408.46599723 -213.64880387 409.63107148 -212.6875 410.8125 C-209.91956855 414.08109089 -207.0538239 416.74088208 -203.625 419.3125 C-202.965 419.3125 -202.305 419.3125 -201.625 419.3125 C-201.625 419.9725 -201.625 420.6325 -201.625 421.3125 C-199.402905 422.85764529 -197.20371834 424.2570148 -194.875 425.625 C-194.1955835 426.02799316 -193.51616699 426.43098633 -192.81616211 426.84619141 C-186.9650392 430.24741772 -180.9691262 432.95389677 -174.625 435.3125 C-174.0077002 435.55621338 -173.39040039 435.79992676 -172.75439453 436.05102539 C-148.63222135 445.45256237 -117.19159898 444.15135961 -93.140625 434.89453125 C-81.30245331 429.56735399 -69.1782021 423.182537 -60.94921875 412.92578125 C-59.625 411.3125 -59.625 411.3125 -57.95703125 409.73046875 C-56.39677485 408.39379946 -56.39677485 408.39379946 -56.625 406.3125 C-55.635 405.9825 -54.645 405.6525 -53.625 405.3125 C-51.94366742 402.99589436 -51.94366742 402.99589436 -50.4375 400.25 C-49.90769531 399.33089844 -49.37789062 398.41179687 -48.83203125 397.46484375 C-48.23455078 396.39943359 -48.23455078 396.39943359 -47.625 395.3125 C-51.75705741 392.52663324 -55.93726525 389.85433511 -60.1875 387.25 C-61.82912109 386.24259766 -61.82912109 386.24259766 -63.50390625 385.21484375 C-65.04884766 384.27318359 -65.04884766 384.27318359 -66.625 383.3125 C-67.54152344 382.73628906 -68.45804688 382.16007813 -69.40234375 381.56640625 C-71.48999448 380.14871635 -71.48999448 380.14871635 -73.625 380.3125 C-73.625 379.6525 -73.625 378.9925 -73.625 378.3125 C-74.6975 377.631875 -75.77 376.95125 -76.875 376.25 C-77.47828125 375.86714844 -78.0815625 375.48429688 -78.703125 375.08984375 C-80.60553889 374.15097021 -80.60553889 374.15097021 -82.71875 374.49609375 C-85.48638868 375.68141442 -86.51778891 377.90168337 -88.140625 380.3359375 C-96.97383162 392.09804947 -112.5267849 398.23688509 -126.625 400.3125 C-139.65009168 401.44994145 -151.56372266 399.26030999 -162.78515625 392.40625 C-164.74999561 391.164882 -164.74999561 391.164882 -167.625 390.1875 C-168.285 389.89875 -168.945 389.61 -169.625 389.3125 C-169.955 388.3225 -170.285 387.3325 -170.625 386.3125 C-172.0865667 385.04580886 -173.55258775 383.78287447 -175.0625 382.57421875 C-178.20642981 380.03549543 -180.33586974 378.17989078 -181.625 374.3125 C-182.285 374.3125 -182.945 374.3125 -183.625 374.3125 C-183.893125 373.425625 -184.16125 372.53875 -184.4375 371.625 C-185.47978928 368.37549824 -185.47978928 368.37549824 -187.0703125 365.9140625 C-196.58527695 349.99203656 -196.22435265 328.93433066 -192.625 311.3125 C-189.40042291 300.88300849 -183.98976859 290.32608812 -175.2265625 283.5703125 C-173.41119203 282.21854339 -173.41119203 282.21854339 -171.375 279.8125 C-160.60314739 270.01990672 -146.45684606 266.90062887 -132.30078125 267.03125 C-122.77604939 267.76002863 -113.318993 270.1727207 -105.2265625 275.359375 C-103.6491743 276.48297005 -103.6491743 276.48297005 -101.625 276.3125 C-101.625 276.9725 -101.625 277.6325 -101.625 278.3125 C-100.635 278.6425 -99.645 278.9725 -98.625 279.3125 C-97.08984375 280.90625 -97.08984375 280.90625 -95.5625 282.8125 C-93.44778233 285.49356401 -93.44778233 285.49356401 -90.625 287.3125 C-89.14185009 289.5697026 -87.91981183 291.9386783 -86.625 294.3125 C-83.5418649 293.11350302 -80.56220508 291.83549523 -77.625 290.3125 C-77.625 289.6525 -77.625 288.9925 -77.625 288.3125 C-76.7175 288.044375 -75.81 287.77625 -74.875 287.5 C-71.80530164 286.37837945 -70.18521826 285.24678255 -67.625 283.3125 C-65.89034809 282.32665745 -64.13896389 281.36988091 -62.375 280.4375 C-57.65968856 277.90578916 -53.1289078 275.20179934 -48.625 272.3125 C-49.97949175 267.40982876 -52.05424244 263.97534679 -55.125 259.9375 C-55.52847656 259.39222656 -55.93195313 258.84695313 -56.34765625 258.28515625 C-57.38587058 256.91800273 -58.50021314 255.60936247 -59.625 254.3125 C-60.285 254.3125 -60.945 254.3125 -61.625 254.3125 C-62.615 252.3325 -62.615 252.3325 -63.625 250.3125 C-64.285 250.3125 -64.945 250.3125 -65.625 250.3125 C-65.83640625 249.74144531 -66.0478125 249.17039062 -66.265625 248.58203125 C-72.90474842 237.4977476 -93.29366802 230.11093089 -104.859375 227.08984375 C-139.80571335 219.87581747 -176.31851544 224.74317563 -204.625 247.3125 Z M-285.625 483.3125 C-287.02435013 486.11120027 -286.87765405 488.21748792 -286.625 491.3125 C-285.07993534 493.34917615 -283.90353844 494.17323078 -281.625 495.3125 C-280.1184983 495.4100959 -278.60774774 495.44528503 -277.09809399 495.44951439 C-276.1392616 495.45458893 -275.18042921 495.45966347 -274.1925413 495.46489179 C-272.60137955 495.46563843 -272.60137955 495.46563843 -270.97807312 495.46640015 C-269.8569152 495.4707824 -268.73575728 495.47516465 -267.58062488 495.4796797 C-263.79813305 495.49310721 -260.01566453 495.49925539 -256.2331543 495.50537109 C-253.53164384 495.51274001 -250.83013831 495.5215322 -248.12863159 495.53015137 C-240.0033138 495.55468682 -231.87798986 495.56930362 -223.75264642 495.58221143 C-221.45858539 495.58592235 -219.16452498 495.58989566 -216.87046456 495.5939641 C-202.63136761 495.61919813 -188.39226971 495.64125601 -174.15315533 495.65369225 C-170.85413802 495.65662205 -167.55512075 495.6595837 -164.25610352 495.66259766 C-163.43612701 495.66334371 -162.6161505 495.66408976 -161.77132622 495.66485842 C-148.48282068 495.67751695 -135.19444879 495.71074609 -121.90600576 495.75239949 C-108.27005775 495.79479263 -94.63417822 495.81838418 -80.99816447 495.82361281 C-73.33915127 495.82702978 -65.68034698 495.83881842 -58.02139854 495.87171555 C-51.4997962 495.89968125 -44.97844557 495.91073082 -38.45678791 495.89952008 C-35.12832179 495.89432427 -31.80081123 495.89998913 -28.47234917 495.92198563 C-24.86541368 495.94452998 -21.25981815 495.93644915 -17.65287781 495.92050171 C-16.59879547 495.9343838 -15.54471314 495.94826588 -14.45868891 495.96256864 C-9.67099322 495.91020745 -7.38482994 495.88368215 -3.46700764 492.93856239 C-1.46928142 490.47305872 -1.46928142 490.47305872 -1.125 487.6875 C-1.71112116 484.90342451 -2.35782311 483.99189029 -4.625 482.3125 C-7.49679831 481.3552339 -9.2814367 481.18639821 -12.26212978 481.18386555 C-13.22008652 481.1806411 -14.17804326 481.17741665 -15.16502899 481.1740945 C-16.74700823 481.1764174 -16.74700823 481.1764174 -18.36094666 481.17878723 C-20.03889819 481.1753889 -20.03889819 481.1753889 -21.75074774 481.17192191 C-25.51865662 481.16556539 -29.28652969 481.16641233 -33.05444336 481.16723633 C-35.74787024 481.16424589 -38.44129426 481.16087219 -41.13471985 481.15705872 C-47.70297377 481.14874554 -54.27121873 481.14600358 -60.83947747 481.14544634 C-66.17690212 481.14497153 -71.5143238 481.14291854 -76.85174751 481.13974571 C-91.9762447 481.13093761 -107.10073479 481.12632662 -122.22523456 481.12707619 C-123.04092425 481.12711614 -123.85661393 481.1271561 -124.69702148 481.12719727 C-125.51370419 481.12723815 -126.33038689 481.12727903 -127.17181755 481.12732115 C-140.41238296 481.12772774 -153.65291995 481.11815515 -166.89347713 481.1040589 C-180.48086256 481.08970724 -194.06823411 481.08278803 -207.65562731 481.08365268 C-215.28712798 481.08398505 -222.91859884 481.08122039 -230.5500927 481.07047462 C-237.04676066 481.06138557 -243.54338532 481.05918122 -250.04005688 481.06598405 C-253.35596967 481.06925725 -256.67178169 481.068198 -259.98768997 481.0606308 C-263.57922518 481.05296335 -267.17053957 481.05752082 -270.7620697 481.06526184 C-271.81449181 481.06011828 -272.86691392 481.05497471 -273.95122761 481.04967529 C-274.91179209 481.05427408 -275.87235658 481.05887288 -276.86202908 481.06361103 C-278.10583187 481.06328498 -278.10583187 481.06328498 -279.374762 481.06295234 C-281.88791318 481.34165664 -283.49052176 481.97066761 -285.625 483.3125 Z " fill="#C31411" transform="translate(653.625,233.6875)"/>
<path d="M0 0 C6.64765583 5.73989419 11.93888486 12.05092113 16.8125 19.3671875 C17.27785156 19.98851562 17.74320313 20.60984375 18.22265625 21.25 C20.85184944 24.79718268 20.85184944 24.79718268 20.67578125 27.34765625 C19.49173285 30.11757943 18.05088097 30.78298109 15.4375 32.2421875 C14.52484375 32.76039063 13.6121875 33.27859375 12.671875 33.8125 C10.01538323 35.25687667 7.3521618 36.68795981 4.6875 38.1171875 C-0.95514765 41.14435899 -6.33504656 44.54712439 -11.70556641 48.02832031 C-12.68468994 48.65432129 -12.68468994 48.65432129 -13.68359375 49.29296875 C-14.55262329 49.85624878 -14.55262329 49.85624878 -15.43920898 50.4309082 C-17.33240146 51.44478799 -19.0915887 51.93134138 -21.1875 52.3671875 C-21.61160156 51.72652344 -22.03570313 51.08585938 -22.47265625 50.42578125 C-30.71086174 38.2766914 -39.88110511 30.12389991 -54.30078125 26.0625 C-70.89677373 23.09356868 -86.68951615 24.94592466 -100.7578125 34.58984375 C-101.55960937 35.17636719 -102.36140625 35.76289062 -103.1875 36.3671875 C-103.84492188 36.84027344 -104.50234375 37.31335938 -105.1796875 37.80078125 C-116.09068588 46.35985331 -122.38699932 60.16435031 -124.75 73.5546875 C-127.19998691 94.90457345 -124.38875119 114.85195079 -110.875 132.1796875 C-100.99221556 143.64371745 -87.42344973 151.8104709 -72.1875 153.3671875 C-56.20675836 153.60621569 -40.62375133 149.85252755 -28.47265625 138.80859375 C-27.36418556 137.6744194 -26.27332248 136.52306304 -25.1875 135.3671875 C-24.5275 135.3671875 -23.8675 135.3671875 -23.1875 135.3671875 C-22.94 134.8103125 -22.6925 134.2534375 -22.4375 133.6796875 C-20.97143985 130.96747623 -19.15760529 128.73131385 -17.1875 126.3671875 C-11.81897534 127.83514346 -7.75318597 130.37007276 -3.1875 133.4296875 C-1.68794701 134.42255046 -0.18793928 135.41472693 1.3125 136.40625 C2.06144531 136.90286133 2.81039062 137.39947266 3.58203125 137.91113281 C5.70124296 139.29455867 7.84137755 140.63225365 10 141.953125 C10.64453125 142.35136475 11.2890625 142.74960449 11.953125 143.15991211 C13.16630004 143.90683671 14.38487566 144.64507993 15.609375 145.37329102 C17.91918551 146.81107931 19.57410196 147.90226565 20.83203125 150.35546875 C20.80600192 153.03649016 19.96530865 154.3882673 18.5 156.6171875 C18.05011719 157.32359375 17.60023438 158.03 17.13671875 158.7578125 C16.69972656 159.28890625 16.26273438 159.82 15.8125 160.3671875 C15.1525 160.3671875 14.4925 160.3671875 13.8125 160.3671875 C13.58949219 161.07488281 13.36648438 161.78257812 13.13671875 162.51171875 C6.20226834 177.46476669 -13.48934835 187.47474125 -28.125 192.96875 C-33.72338306 194.95282115 -39.33456232 196.35977277 -45.1875 197.3671875 C-46.34378906 197.57085938 -47.50007812 197.77453125 -48.69140625 197.984375 C-79.25521369 202.7164173 -110.58371252 196.75883844 -135.8918457 178.53222656 C-145.93708418 170.98752552 -154.49586791 162.00706789 -161.1875 151.3671875 C-161.62191406 150.75101563 -162.05632812 150.13484375 -162.50390625 149.5 C-173.7690089 133.04376854 -177.37509007 111.60217625 -177.37280273 92.14379883 C-177.37498362 90.07026456 -177.39316823 87.99726827 -177.41210938 85.92382812 C-177.44237748 78.52211327 -177.07957476 71.5506396 -175.1875 64.3671875 C-172.81085602 68.00205476 -173.34488608 70.21841504 -174.1875 74.3671875 C-175.41067444 95.80226506 -174.95650735 117.79755789 -165.1875 137.3671875 C-164.88199219 138.05167969 -164.57648438 138.73617187 -164.26171875 139.44140625 C-161.75941446 144.87592615 -158.37134526 149.71071856 -154.9921875 154.6328125 C-153.1875 157.3671875 -153.1875 157.3671875 -152.0625 159.66796875 C-151.3124638 161.53535088 -151.3124638 161.53535088 -149.3125 162.3046875 C-146.44801343 163.73693079 -145.14349097 165.86107407 -143.1875 168.3671875 C-142.445 168.9240625 -141.7025 169.4809375 -140.9375 170.0546875 C-140.36 170.4878125 -139.7825 170.9209375 -139.1875 171.3671875 C-139.1875 172.0271875 -139.1875 172.6871875 -139.1875 173.3671875 C-137.8675 173.6971875 -136.5475 174.0271875 -135.1875 174.3671875 C-135.1875 175.0271875 -135.1875 175.6871875 -135.1875 176.3671875 C-134.45660156 176.63917969 -133.72570312 176.91117188 -132.97265625 177.19140625 C-130.30410687 178.31796076 -128.05861079 179.61904708 -125.625 181.1796875 C-120.05982922 184.58016443 -114.26246574 187.02886948 -108.1875 189.3671875 C-107.56294922 189.61525146 -106.93839844 189.86331543 -106.29492188 190.11889648 C-82.18221964 199.51061928 -50.75012277 198.19896549 -26.7109375 188.953125 C-18.72447943 185.35833345 -10.5178319 181.32273914 -3.84375 175.5859375 C-1.1875 173.3671875 -1.1875 173.3671875 0.8125 173.3671875 C1.4725 172.0471875 2.1325 170.7271875 2.8125 169.3671875 C3.4725 169.3671875 4.1325 169.3671875 4.8125 169.3671875 C5.4725 168.0471875 6.1325 166.7271875 6.8125 165.3671875 C7.4725 165.3671875 8.1325 165.3671875 8.8125 165.3671875 C8.874375 164.8103125 8.93625 164.2534375 9 163.6796875 C10.13905851 160.43775173 12.3968041 158.7828834 14.8125 156.3671875 C16.60570824 153.20073276 16.60570824 153.20073276 17.8125 150.3671875 C17.11898437 149.95339844 16.42546875 149.53960938 15.7109375 149.11328125 C12.60493879 147.24214726 9.52100241 145.33765039 6.4375 143.4296875 C1.94260516 140.65460614 -2.57452725 137.94186997 -7.1875 135.3671875 C-7.1875 134.7071875 -7.1875 134.0471875 -7.1875 133.3671875 C-7.785625 133.2434375 -8.38375 133.1196875 -9 132.9921875 C-11.1875 132.3671875 -11.1875 132.3671875 -14.1875 130.3671875 C-15.1775 130.3671875 -16.1675 130.3671875 -17.1875 130.3671875 C-18.59926736 131.90149513 -18.59926736 131.90149513 -19.875 133.9296875 C-28.56191132 146.11729442 -42.32038526 152.89048281 -56.73828125 155.859375 C-71.75100043 158.06962811 -85.35395356 155.47403161 -98.1875 147.3671875 C-99.54875 146.6246875 -99.54875 146.6246875 -100.9375 145.8671875 C-104.69923716 143.35936272 -107.52076423 140.21041215 -110.3125 136.6796875 C-112.15311073 134.17565081 -112.15311073 134.17565081 -115.1875 132.3671875 C-115.1875 131.3771875 -115.1875 130.3871875 -115.1875 129.3671875 C-115.8475 129.3671875 -116.5075 129.3671875 -117.1875 129.3671875 C-128.74108886 109.45650269 -131.81414601 89.01847526 -127.1875 66.3671875 C-124.81845001 58.70479144 -120.41017219 46.23154154 -113.05078125 42.1953125 C-112.12845703 41.78539062 -112.12845703 41.78539062 -111.1875 41.3671875 C-109.91945434 39.3335927 -109.91945434 39.3335927 -109.1875 37.3671875 C-108.5275 37.3671875 -107.8675 37.3671875 -107.1875 37.3671875 C-106.9503125 36.7690625 -106.713125 36.1709375 -106.46875 35.5546875 C-102.27695314 28.39796116 -90.41312641 24.86753048 -82.79296875 22.6796875 C-66.88562137 18.97910911 -50.95385597 21.9236466 -37.03125 30.1953125 C-36.4228125 30.58203125 -35.814375 30.96875 -35.1875 31.3671875 C-35.1875 32.0271875 -35.1875 32.6871875 -35.1875 33.3671875 C-34.630625 33.4084375 -34.07375 33.4496875 -33.5 33.4921875 C-30.01403414 34.81120161 -28.47154524 37.49748963 -26.1875 40.3671875 C-25.1975 41.0271875 -24.2075 41.6871875 -23.1875 42.3671875 C-22.12503473 44.33471578 -21.11612192 46.33306329 -20.1875 48.3671875 C-19.445 48.0578125 -18.7025 47.7484375 -17.9375 47.4296875 C-15.68057824 46.557695 -13.5424847 45.89051743 -11.1875 45.3671875 C-11.1875 44.7071875 -11.1875 44.0471875 -11.1875 43.3671875 C-9.38671875 42.0703125 -9.38671875 42.0703125 -6.875 40.6171875 C-5.96492187 40.08867188 -5.05484375 39.56015625 -4.1171875 39.015625 C-0.34692037 36.89422136 3.44309045 34.81267845 7.25 32.7578125 C10.4679672 31.01147664 13.64244417 29.19877531 16.8125 27.3671875 C14.18575089 18.26737809 8.29142298 11.01792931 0.8125 5.3671875 C-0.30125 4.1915625 -0.30125 4.1915625 -1.4375 2.9921875 C-19.96875849 -14.69674106 -45.54670487 -20.30566628 -70.44140625 -19.81640625 C-97.56683516 -18.48700567 -123.80178886 -12.09550759 -143.1875 8.3671875 C-144.28868419 9.24593798 -145.39315498 10.120578 -146.5 10.9921875 C-154.72673552 18.0027969 -159.79616462 27.66395352 -164.1875 37.3671875 C-164.65285156 38.39328125 -165.11820312 39.419375 -165.59765625 40.4765625 C-167.91293058 45.7956184 -169.64368456 50.82375185 -170.71875 56.51953125 C-171.33416454 58.94529024 -172.46894977 60.57052135 -174.1875 62.3671875 C-175.11801742 44.21016808 -163.39372871 25.35596284 -151.76000977 12.2421875 C-150.25431585 10.59849334 -148.72844588 8.97782951 -147.1875 7.3671875 C-146.32511719 6.46226562 -145.46273438 5.55734375 -144.57421875 4.625 C-107.18758735 -31.79718112 -39.44812155 -32.96184729 0 0 Z " fill="#BC0201" transform="translate(587.1875,478.6328125)"/>
<path d="M0 0 C4.86611781 7.74974318 5.11878554 13.8483966 5.07518005 22.90068054 C5.07935599 24.25110864 5.08483493 25.60153322 5.09149987 26.95195132 C5.10593998 30.65275497 5.10171426 34.35333564 5.09433305 38.05415142 C5.08959995 42.04954479 5.10211269 46.04489003 5.11235046 50.04026794 C5.12954271 57.86465293 5.13037736 65.68895762 5.12513756 73.51335659 C5.12109437 79.8756049 5.1225412 86.2378295 5.12788582 92.60007668 C5.12863424 93.50598206 5.12938266 94.41188744 5.13015376 95.3452445 C5.13168527 97.18570099 5.13322362 99.02615748 5.13476873 100.86661396 C5.14849604 118.12578177 5.14305512 135.38490425 5.13158352 152.64407102 C5.12165733 168.42035546 5.13458077 184.19652251 5.15851771 199.97278883 C5.18292561 216.18197847 5.19251203 232.39111347 5.18586498 248.60032111 C5.18237569 257.69639327 5.18458532 266.79237522 5.20211601 275.88843346 C5.2168594 283.63426363 5.21744589 291.37994014 5.2000451 299.12576737 C5.19154906 303.07464348 5.18935094 307.02324533 5.20469666 310.97210693 C5.21859651 314.59391216 5.21371351 318.21520956 5.19445742 321.8369858 C5.18895232 323.75345755 5.20292498 325.66995549 5.21781152 327.58637732 C5.13088939 337.87899887 3.14221067 347.41740196 -3.3125 355.6875 C-3.9725 356.55375 -4.6325 357.42 -5.3125 358.3125 C-7.22823468 360.58743493 -9.06848688 362.73303696 -11.3125 364.6875 C-12.3025 364.6875 -13.2925 364.6875 -14.3125 364.6875 C-14.3125 365.3475 -14.3125 366.0075 -14.3125 366.6875 C-15.9154053 367.50248562 -17.51987278 368.31439927 -19.125 369.125 C-20.01832031 369.57746094 -20.91164063 370.02992188 -21.83203125 370.49609375 C-25.73851083 372.37243434 -28.6516961 372.81524889 -32.94241238 372.8273077 C-34.12185624 372.83299894 -35.3013001 372.83869018 -36.51648468 372.84455389 C-37.81859219 372.84573376 -39.1206997 372.84691364 -40.46226501 372.84812927 C-41.85461064 372.85285953 -43.24695489 372.85801035 -44.63929754 372.86354691 C-48.47448252 372.877466 -52.309658 372.8850403 -56.14486182 372.8915199 C-59.43234518 372.89788777 -62.71981291 372.9079584 -66.00728654 372.91808056 C-76.84071157 372.95142 -87.67414611 372.97293072 -98.50760564 372.99128041 C-101.32899293 372.99607531 -104.15037983 373.00105866 -106.97176671 373.00608563 C-124.49366422 373.03706072 -142.01556504 373.06374544 -159.53748226 373.08050442 C-163.59700972 373.08445391 -167.65653712 373.0884569 -171.71606445 373.0925293 C-173.22952572 373.09404184 -173.22952572 373.09404184 -174.77356196 373.09558494 C-191.10948532 373.11258297 -207.44525696 373.15368135 -223.78110629 373.20455229 C-240.55516282 373.2563577 -257.32914141 373.28545069 -274.10327727 373.2927013 C-283.52029979 373.29736028 -292.93707401 373.31207692 -302.35401726 373.3524456 C-310.3762802 373.38679369 -318.39825004 373.4006657 -326.42058229 373.38802146 C-330.51134079 373.3822054 -334.60147982 373.38598318 -338.69214439 373.4161911 C-342.44380372 373.44366842 -346.19440688 373.44297034 -349.94609088 373.42068065 C-351.93238899 373.41596399 -353.91869139 373.4406311 -355.90482467 373.46664995 C-366.03667072 373.36083497 -374.54094246 370.35493469 -382.3125 363.6875 C-382.3125 363.0275 -382.3125 362.3675 -382.3125 361.6875 C-383.17875 361.3471875 -383.17875 361.3471875 -384.0625 361 C-390.0769912 357.4915468 -393.33157941 350.31815067 -395.6875 344 C-396.36873524 340.38945322 -396.06439023 339.71049856 -394.3125 336.6875 C-393.98378906 337.70457031 -393.98378906 337.70457031 -393.6484375 338.7421875 C-389.17558392 351.86983092 -383.48310353 360.5536192 -371 367.0625 C-366.51674059 369.22423934 -362.62671773 369.81285696 -357.65045071 369.82172108 C-355.90872386 369.82840784 -355.90872386 369.82840784 -354.13181061 369.83522969 C-352.85527951 369.83504533 -351.57874841 369.83486097 -350.26353455 369.83467102 C-348.89436236 369.83797089 -347.52519115 369.84169672 -346.15602118 369.8458125 C-342.38956977 369.85582675 -338.62313429 369.85954837 -334.85667145 369.86220181 C-330.79581852 369.8661066 -326.73497819 369.87568486 -322.6741333 369.88441467 C-312.86476384 369.90417479 -303.05539335 369.91424501 -293.24600896 369.92314246 C-288.62557412 369.92752636 -284.00514043 369.93289293 -279.3847065 369.93813133 C-264.023301 369.95514364 -248.66189622 369.96963733 -233.30048275 369.97688007 C-229.3143355 369.97878994 -225.32818825 369.98071028 -221.34204102 369.98266602 C-219.85595007 369.98339163 -219.85595007 369.98339163 -218.33983708 369.9841319 C-202.29433495 369.9924304 -186.24890742 370.01776427 -170.20343786 370.05024669 C-153.72654579 370.08333027 -137.24969162 370.10133003 -120.77276617 370.10452431 C-111.52296769 370.10668827 -102.27327797 370.11542019 -93.02351189 370.14098549 C-85.14511235 370.16271027 -77.26684798 370.17073419 -69.38842189 370.16101871 C-65.370822 370.15647906 -61.35350092 370.15834045 -57.33593941 370.17778015 C-53.65240631 370.19544913 -49.96935462 370.19438433 -46.28581614 370.17888286 C-44.33365334 370.17539598 -42.38148528 370.19150525 -40.42939323 370.20848733 C-29.29976184 370.12751249 -21.10758085 367.42415767 -12.3125 360.6875 C-11.6525 360.6875 -10.9925 360.6875 -10.3125 360.6875 C-9.94125 359.8521875 -9.94125 359.8521875 -9.5625 359 C-8.3125 356.6875 -8.3125 356.6875 -6.40234375 354.41796875 C-4.23214319 351.58251045 -2.96014362 348.98955867 -1.625 345.6875 C-1.20863281 344.676875 -0.79226563 343.66625 -0.36328125 342.625 C1.2698084 338.05963414 1.81260578 333.93527342 1.81613445 329.09704876 C1.8193589 327.97734052 1.82258335 326.85763229 1.8259055 325.7039935 C1.8243569 324.47891121 1.8228083 323.25382892 1.82121277 321.99162292 C1.82347833 320.68625857 1.82574388 319.38089422 1.82807809 318.03597337 C1.83419619 314.41420507 1.83406248 310.79245985 1.83288372 307.17068756 C1.83267971 303.26397017 1.83819845 299.3572602 1.84294128 295.45054626 C1.85124851 287.79703147 1.85399616 280.14352438 1.85455366 272.49000546 C1.8550288 266.26879578 1.85708343 260.04758865 1.86025429 253.82637978 C1.86906114 236.18843544 1.87367363 218.5504972 1.87292381 200.91255065 C1.87288386 199.96164087 1.8728439 199.01073109 1.87280273 198.03100586 C1.87276185 197.07893512 1.87272097 196.12686439 1.87267885 195.14594302 C1.8722724 179.71605628 1.88184174 164.28619395 1.8959411 148.85631426 C1.9103037 133.01334175 1.91721135 117.17038113 1.91634732 101.32740194 C1.91601531 92.43266063 1.91876435 83.5379449 1.92952538 74.64320946 C1.93862886 67.06999889 1.94080688 59.49682551 1.93401595 51.92361184 C1.93074995 48.06037665 1.93069695 44.19721279 1.9393692 40.33398438 C1.94867805 36.14404487 1.94246024 31.95427069 1.93473816 27.764328 C1.9424535 25.93674282 1.9424535 25.93674282 1.95032471 24.07223672 C1.91435036 15.25205367 1.48080824 7.80499298 -4.3125 0.6875 C-9.11497577 -3.35758067 -14.6431058 -2.86462899 -20.61656189 -2.98716736 C-21.72710432 -3.02015362 -22.83764675 -3.05313988 -23.98184198 -3.08712572 C-35.46858195 -3.40330565 -46.95705567 -3.48647102 -58.44750977 -3.51782227 C-60.73688417 -3.52743766 -63.02625694 -3.53744963 -65.31562805 -3.54782104 C-71.44204071 -3.57448063 -77.56846076 -3.59569692 -83.69489789 -3.61582303 C-90.13034688 -3.63792757 -96.56577411 -3.66519471 -103.00120544 -3.69187927 C-113.77398765 -3.73586886 -124.54677675 -3.7767567 -135.31958008 -3.81518555 C-146.40129469 -3.85472505 -157.4829994 -3.89619342 -168.56469727 -3.94018555 C-169.25111215 -3.94290982 -169.93752704 -3.94563409 -170.64474238 -3.94844092 C-174.08928117 -3.96212341 -177.53381982 -3.97584309 -180.97835839 -3.98958123 C-209.42305132 -4.1029817 -237.86776637 -4.20984417 -266.3125 -4.3125 C-266.3125 -4.6425 -266.3125 -4.9725 -266.3125 -5.3125 C-233.83589941 -5.53134653 -201.35925571 -5.72953932 -168.88236144 -5.89894359 C-165.04722452 -5.91896644 -161.21208855 -5.93916518 -157.37695312 -5.95947266 C-156.23170478 -5.96553244 -156.23170478 -5.96553244 -155.0633201 -5.97171465 C-142.70464189 -6.03752675 -130.346095 -6.11758419 -117.98753792 -6.20291659 C-105.30430325 -6.29017331 -92.62104828 -6.36209728 -79.93764448 -6.41982102 C-72.11275171 -6.45591536 -64.28811942 -6.50393418 -56.46339887 -6.56726131 C-50.46099857 -6.61455813 -44.45869848 -6.64051016 -38.45613098 -6.65852928 C-35.99546268 -6.66925051 -33.53481329 -6.68688384 -31.07424927 -6.71194649 C-27.71370358 -6.74514139 -24.3539745 -6.75342754 -20.99328613 -6.7555542 C-20.0205061 -6.77109651 -19.04772607 -6.78663883 -18.04546785 -6.80265212 C-10.76604687 -6.76671688 -5.23307259 -5.23307259 0 0 Z " fill="#BB0201" transform="translate(706.3125,423.3125)"/>
<path d="M0 0 C7.94452408 7.73545765 11.93014315 17.79608061 15.3203125 28.21875 C16.42717016 31.46553247 17.73890764 34.55016192 19.125 37.6875 C21.71229397 43.61104147 24.02294618 49.6086768 26.25366211 55.67431641 C27.87005676 60.04379268 29.61808612 64.30635257 31.61328125 68.515625 C33.49978567 72.96584056 33.99431203 77.51956345 33.375 82.3125 C30.79424852 88.65684738 27.31605612 91.15582407 21.375 94.3125 C18.59017593 95.47120907 15.7601885 96.37586474 12.875 97.25 C11.29213751 97.75259794 9.71012072 98.25786605 8.12890625 98.765625 C7.33758301 99.01892578 6.54625977 99.27222656 5.73095703 99.53320312 C0.80054006 101.16407266 -4.03217709 103.05620929 -8.87890625 104.91796875 C-12.3229605 106.20006194 -15.78122776 107.37974153 -19.27075195 108.52905273 C-23.34422473 109.88462404 -27.38868034 111.32282835 -31.4375 112.75 C-37.02650087 114.71608104 -42.61814402 116.65923774 -48.25 118.5 C-52.60302641 119.93271878 -56.82700743 121.57604224 -61.06640625 123.3125 C-64.87869924 124.80249543 -68.76337536 126.05083972 -72.65234375 127.32421875 C-75.32894067 128.21407292 -77.97791574 129.15150266 -80.625 130.125 C-85.93844209 132.07892565 -91.2796641 133.94814514 -96.625 135.8125 C-109.04817972 140.05423237 -109.04817972 140.05423237 -121.25 144.875 C-123.76477085 145.9461061 -126.18508949 146.86145757 -128.7734375 147.70703125 C-133.40793251 149.23606742 -138.01938753 150.8237542 -142.625 152.4375 C-143.88848267 152.87993042 -143.88848267 152.87993042 -145.17749023 153.33129883 C-158.32274071 157.94816147 -171.42460174 162.68884344 -184.515625 167.45703125 C-188.10701442 168.76471819 -191.70687452 170.04458774 -195.3125 171.3125 C-199.33610073 172.77040954 -203.1194683 174.44510442 -206.90234375 176.44140625 C-208.625 177.3125 -208.625 177.3125 -211.5625 178.375 C-212.243125 178.684375 -212.92375 178.99375 -213.625 179.3125 C-213.955 180.3025 -214.285 181.2925 -214.625 182.3125 C-217.1875 183.5 -217.1875 183.5 -219.625 184.3125 C-216.93774961 177.63149075 -209.77596294 173.76092651 -203.4765625 170.86523438 C-202.34992188 170.42501953 -201.22328125 169.98480469 -200.0625 169.53125 C-199.42419754 169.28162506 -198.78589508 169.03200012 -198.12825012 168.77481079 C-188.92891745 165.21670739 -179.61310878 161.96858382 -170.3125 158.6875 C-168.31671401 157.98066724 -166.32102847 157.2735508 -164.32543945 156.56616211 C-155.21105013 153.33727792 -146.0916526 150.12271305 -136.96875 146.91796875 C-134.08323008 145.90393932 -131.19782917 144.88957203 -128.3125 143.875 C-127.27227188 143.50944504 -127.27227188 143.50944504 -126.21102905 143.13650513 C-116.50414484 139.72237539 -106.85280141 136.17958811 -97.23291016 132.52685547 C-89.19747575 129.49008918 -81.09357823 126.67911941 -72.96679688 123.89770508 C-63.9791178 120.81001527 -55.04904832 117.57813696 -46.125 114.3125 C-36.21500351 110.68765109 -26.29144756 107.11947017 -16.3125 103.6875 C-15.28745361 103.33260498 -14.26240723 102.97770996 -13.20629883 102.61206055 C-8.12088532 100.8525689 -3.03068079 99.11062731 2.0728302 97.40423584 C4.65595225 96.53615774 7.23347172 95.65219629 9.81015015 94.76519775 C11.63685926 94.14226907 13.47035082 93.53934199 15.30395508 92.93701172 C23.93200074 90.08560504 23.93200074 90.08560504 29.375 83.3125 C30.98178712 74.74704168 28.04644712 67.72177162 24.625 60 C23.61686615 57.63350343 22.61042151 55.2662867 21.60546875 52.8984375 C21.34334091 52.28819229 21.08121307 51.67794708 20.81114197 51.04920959 C18.8378136 46.44923607 16.95480642 41.81825423 15.11328125 37.1640625 C14.8466568 36.49065323 14.58003235 35.81724396 14.30532837 35.12342834 C13.26092703 32.48184434 12.21860093 29.83945166 11.17858887 27.19613647 C5.91225834 11.83975132 5.91225834 11.83975132 -5.625 1.3125 C-13.14055683 0.5032238 -19.33102509 2.1215528 -26.3359375 4.6796875 C-27.83244087 5.20508118 -27.83244087 5.20508118 -29.35917664 5.74108887 C-32.57820186 6.87521079 -35.78893826 8.0310458 -39 9.1875 C-41.22924572 9.97746008 -43.45898537 10.76602761 -45.68920898 11.55322266 C-51.07459188 13.45799765 -56.45376177 15.37953884 -61.83013916 17.30957031 C-65.5345677 18.63889637 -69.24178963 19.96032208 -72.94921875 21.28125 C-76.27152853 22.46651023 -79.5931231 23.65355461 -82.91235352 24.84741211 C-92.066148 28.13634705 -101.26235294 31.29634459 -110.46551514 34.44351196 C-121.09214714 38.07880379 -131.68596507 41.79877613 -142.26464844 45.57113647 C-151.30269621 48.79309076 -160.35958796 51.95429144 -169.4375 55.0625 C-181.19969354 59.09638906 -192.91755326 63.24764615 -204.625 67.4375 C-205.50414062 67.75210175 -206.38328125 68.06670349 -207.2890625 68.39083862 C-210.91909336 69.69005579 -214.54900891 70.98959456 -218.17880249 72.28947449 C-266.51997233 89.59901206 -266.51997233 89.59901206 -285.5625 96.125 C-298.83748178 100.67578468 -312.08693036 105.29905821 -325.3298645 109.94223022 C-327.80451847 110.80925238 -330.27967237 111.67484905 -332.75534058 112.53897095 C-336.25362794 113.76039227 -339.75006093 114.98698658 -343.24609375 116.21484375 C-344.30421265 116.58320343 -345.36233154 116.95156311 -346.45251465 117.33108521 C-356.94057094 120.7793607 -356.94057094 120.7793607 -364.625 128.3125 C-366.51873944 132.27276532 -366.98540905 135.75924932 -367.25 140.125 C-367.32476562 141.28644531 -367.39953125 142.44789063 -367.4765625 143.64453125 C-367.52554687 144.52496094 -367.57453125 145.40539062 -367.625 146.3125 C-367.955 146.3125 -368.285 146.3125 -368.625 146.3125 C-368.84795635 143.91722566 -369.05374063 141.52248659 -369.25 139.125 C-369.31445312 138.45146484 -369.37890625 137.77792969 -369.4453125 137.08398438 C-369.76862111 132.94159282 -369.51595265 130.02944891 -367.625 126.3125 C-366.965 126.3125 -366.305 126.3125 -365.625 126.3125 C-365.563125 125.735 -365.50125 125.1575 -365.4375 124.5625 C-364.24990332 121.27377073 -362.51163368 120.29051712 -359.625 118.3125 C-356.66805327 117.00933895 -353.63180817 116.00471653 -350.5625 115 C-348.77200957 114.39490351 -346.98164876 113.78942335 -345.19140625 113.18359375 C-343.8149292 112.72315674 -343.8149292 112.72315674 -342.41064453 112.25341797 C-337.11978128 110.46630255 -331.86310572 108.58039601 -326.60131836 106.7097168 C-321.70093147 104.98545901 -316.77593337 103.43308374 -311.78198242 102.00097656 C-308.89669966 101.08003741 -306.31896961 99.68814406 -303.625 98.3125 C-302.28653196 97.83038222 -300.93900569 97.37307153 -299.5859375 96.93359375 C-298.78824951 96.67239746 -297.99056152 96.41120117 -297.16870117 96.14208984 C-296.32927979 95.8683252 -295.4898584 95.59456055 -294.625 95.3125 C-292.94099665 94.75253239 -291.25740827 94.19131541 -289.57421875 93.62890625 C-288.71658936 93.34305664 -287.85895996 93.05720703 -286.9753418 92.76269531 C-285.15773149 92.15676966 -283.34018885 91.55064102 -281.52270508 90.94433594 C-277.64158379 89.64983145 -273.7599909 88.35707512 -269.875 87.07421875 C-268.864375 86.74035156 -267.85375 86.40648437 -266.8125 86.0625 C-265.56533203 85.65257812 -265.56533203 85.65257812 -264.29296875 85.234375 C-261.44731913 84.25110515 -258.62986022 83.20092348 -255.81323242 82.13769531 C-251.94437941 80.67872809 -248.06579955 79.24612485 -244.1875 77.8125 C-242.99543945 77.36970703 -242.99543945 77.36970703 -241.77929688 76.91796875 C-237.16486827 75.21337104 -232.53238414 73.59432688 -227.8605957 72.05419922 C-224.03841859 70.78612298 -220.23829505 69.4555487 -216.4375 68.125 C-215.58816895 67.82819336 -214.73883789 67.53138672 -213.86376953 67.22558594 C-206.31974754 64.57851245 -198.80792249 61.84533058 -191.31176758 59.06567383 C-186.17012493 57.175144 -181.01680712 55.48197122 -175.74682617 53.98339844 C-172.87184772 53.07436141 -170.30679077 51.68192508 -167.625 50.3125 C-165.5348525 49.55323974 -163.42630247 48.87383637 -161.30859375 48.1953125 C-156.95252366 46.76231128 -152.65521344 45.16563052 -148.34765625 43.59375 C-145.49242461 42.61104698 -142.65149545 41.71021042 -139.7578125 40.85546875 C-134.92783883 39.4249395 -130.18294868 37.81231419 -125.4375 36.125 C-123.69667993 35.51153328 -121.95579161 34.89826021 -120.21484375 34.28515625 C-119.30976074 33.96562988 -118.40467773 33.64610352 -117.47216797 33.31689453 C-112.48427281 31.55731635 -107.49293056 29.80773201 -102.5 28.0625 C-101.56518799 27.73354736 -100.63037598 27.40459473 -99.66723633 27.06567383 C-94.38975532 25.22210894 -89.09872477 23.51927851 -83.72314453 21.98339844 C-81.42091493 21.3064289 -81.42091493 21.3064289 -78.625 19.8125 C-75.24600527 18.12300263 -71.91008801 17.15472664 -68.2890625 16.11328125 C-65.75316678 15.3510252 -63.29300012 14.48776592 -60.8125 13.5625 C-54.48939443 11.21596507 -48.08517236 9.12771506 -41.67431641 7.03588867 C-36.75366014 5.41443772 -31.94431091 3.6624402 -27.15844727 1.68066406 C-18.28735237 -1.94557317 -9.06288665 -4.21892999 0 0 Z " fill="#BD0201" transform="translate(653.625,233.6875)"/>
<path d="M0 0 C0.96866587 -0.00507454 1.93733175 -0.01014909 2.93535113 -0.0153774 C4.00711636 -0.01587516 5.07888158 -0.01637292 6.18312454 -0.01688576 C7.31582755 -0.02126801 8.44853056 -0.02565027 9.61555791 -0.03016531 C13.43717435 -0.04359326 17.25876772 -0.04974112 21.08040237 -0.0558567 C23.80984656 -0.06322561 26.53928587 -0.07201784 29.26872635 -0.08063698 C37.4785887 -0.10517369 45.68845713 -0.11978995 53.89834487 -0.13269705 C56.21649552 -0.13640804 58.53464556 -0.14038135 60.8527956 -0.14444971 C75.24269833 -0.16968517 89.63260199 -0.19174218 104.02252197 -0.20417786 C107.35659412 -0.20710764 110.69066624 -0.21006929 114.02473831 -0.21308327 C114.85342435 -0.21382932 115.68211039 -0.21457537 116.53590813 -0.21534403 C129.96276779 -0.22800002 143.38949509 -0.26122555 156.81629285 -0.3028851 C170.59575725 -0.34528902 184.37515387 -0.3688711 198.15468335 -0.37409842 C205.89365217 -0.3775143 213.63241415 -0.38929002 221.37131882 -0.42220116 C227.96169578 -0.45018173 234.55182352 -0.46120989 241.14225528 -0.4500057 C244.50527154 -0.4448136 247.86734238 -0.45045681 251.23035431 -0.47247124 C254.87634584 -0.49504249 258.52101449 -0.48692196 262.16701126 -0.47098732 C263.2298536 -0.48486941 264.29269594 -0.49875149 265.38774562 -0.51305425 C273.37508561 -0.42680978 273.37508561 -0.42680978 277.05478668 2.495327 C279.42903519 5.13701439 279.42903519 5.13701439 280.67903519 8.01201439 C280.31027922 12.62146398 277.75501922 15.08047716 274.42903519 18.13701439 C272.04046163 19.33130117 270.58153368 19.26338412 267.91495323 19.26564884 C266.95898754 19.26887329 266.00302185 19.27209773 265.01808751 19.27541989 C263.96052184 19.27387129 262.90295616 19.27232269 261.81334305 19.27072716 C260.13667315 19.27412549 260.13667315 19.27412549 258.42613113 19.27759248 C254.65511619 19.28395703 250.88413696 19.28310155 247.11311722 19.28227806 C244.41983784 19.28526803 241.72656132 19.28864155 239.03328323 19.29245567 C232.46155009 19.300774 225.88982592 19.30351105 219.31808795 19.30406805 C213.97777897 19.30454267 208.63747296 19.30659473 203.29716492 19.30976868 C188.16675958 19.31857865 173.03636134 19.32318754 157.90595342 19.3224382 C157.08969833 19.32239825 156.27344325 19.32235829 155.43245316 19.32231712 C154.61520495 19.32227624 153.79795675 19.32223536 152.95594345 19.32219324 C139.70884794 19.32178672 126.46178085 19.33135683 113.21469356 19.34545549 C99.62281975 19.35980731 86.0309598 19.36672633 72.43907821 19.36586171 C64.80420919 19.36552932 57.16936996 19.36829491 49.53450775 19.37903976 C43.03415577 19.3881291 36.53384708 19.39033298 30.03349151 19.38353034 C26.71556042 19.38025711 23.39773004 19.38131644 20.07980347 19.38888359 C16.48602526 19.39655107 12.89246774 19.39199353 9.29869461 19.38425255 C8.24559038 19.38939611 7.19248616 19.39453967 6.10746968 19.3998391 C5.14628849 19.39524031 4.18510731 19.39064151 3.19479942 19.38590336 C2.36505549 19.38612073 1.53531155 19.38633809 0.68042386 19.38656205 C-1.79394915 19.11229844 -3.42918019 18.37573053 -5.57096481 17.13701439 C-5.57096481 16.47701439 -5.57096481 15.81701439 -5.57096481 15.13701439 C-4.69088379 15.13929271 -4.69088379 15.13929271 -3.79302335 15.14161706 C30.96177688 15.23108144 65.71655415 15.29973634 100.47144501 15.34127571 C104.64220443 15.34627868 108.81296362 15.35145596 112.98372269 15.35674095 C113.81406435 15.35779019 114.64440602 15.35883943 115.49990955 15.35992047 C128.95408507 15.37733743 142.4081924 15.40888219 155.86232743 15.44562557 C169.66205392 15.48299914 183.46174464 15.50524264 197.26151967 15.51336837 C205.78039775 15.5188636 214.29908311 15.536235 222.81790188 15.56868026 C228.65536666 15.58978394 234.49273145 15.59622388 240.33023164 15.5910199 C243.70097827 15.58845155 247.07111484 15.59462514 250.44184875 15.61383629 C254.09285923 15.63363103 257.74303369 15.6289912 261.39406204 15.61803246 C262.4640943 15.62968382 263.53412656 15.64133519 264.63658404 15.65333962 C270.22087954 15.69483096 270.22087954 15.69483096 275.08356476 13.26710701 C276.572512 11.1774761 276.572512 11.1774761 276.99153519 8.57451439 C276.64946487 6.01249516 276.64946487 6.01249516 274.58032799 4.50763893 C269.89345946 2.46913047 265.50471132 2.73068811 260.44585037 2.76952171 C258.76427721 2.76461845 258.76427721 2.76461845 257.04873288 2.75961614 C253.28457576 2.7523213 249.52080539 2.76650651 245.75667191 2.78056908 C243.06131912 2.77977841 240.3659911 2.77780615 237.67064285 2.77437401 C231.10562817 2.76874095 224.5407303 2.77905439 217.97573553 2.79466197 C210.33348246 2.81219602 202.69125208 2.81362111 195.04898204 2.81427756 C181.41636382 2.81596559 167.78379885 2.83178106 154.15120316 2.85576439 C140.91617262 2.87903146 127.68117585 2.8931904 114.44612503 2.89678001 C113.63069807 2.89700278 112.81527111 2.89722555 111.97513424 2.89745507 C110.33248954 2.89789766 108.68984485 2.89833968 107.04720015 2.89878114 C105.83180669 2.89911048 105.83180669 2.89911048 104.59185982 2.89944649 C103.78367101 2.89966247 102.9754822 2.89987846 102.14280283 2.90010099 C89.53771265 2.90379998 76.93262794 2.91515898 64.32754376 2.92757688 C59.75561309 2.93201449 55.18368293 2.93545179 50.61175095 2.93819901 C43.36163985 2.94262791 36.11154891 2.95038906 28.86145054 2.96497342 C25.54770333 2.97158789 22.23397742 2.97612249 18.92022324 2.97743416 C15.33287319 2.97917318 11.74558926 2.98703842 8.15825272 2.99657249 C6.57729665 2.99527277 6.57729665 2.99527277 4.96440208 2.99394679 C4.00706204 2.99778794 3.049722 3.00162908 2.06337166 3.00558662 C1.23487422 3.00683312 0.40637678 3.00807962 -0.44722664 3.00936389 C-2.76066309 3.0565034 -2.76066309 3.0565034 -5.57096481 4.13701439 C-5.90096481 4.79701439 -6.23096481 5.45701439 -6.57096481 6.13701439 C-7.23096481 6.13701439 -7.89096481 6.13701439 -8.57096481 6.13701439 C-8.90096481 7.12701439 -9.23096481 8.11701439 -9.57096481 9.13701439 C-9.90096481 8.47701439 -10.23096481 7.81701439 -10.57096481 7.13701439 C-6.02608978 0.01671017 -6.02608978 0.01671017 0 0 Z " fill="#B70302" transform="translate(374.5709648132324,712.8629856109619)"/>
<path d="M0 0 C2.22008835 1.52068797 4.24681615 3.04339874 6.3125 4.75 C6.91715088 5.23662109 7.52180176 5.72324219 8.14477539 6.22460938 C10.10503103 7.80624476 12.05370558 9.40122396 14 11 C33.21824412 26.83748607 33.21824412 26.83748607 54.0234375 40.46484375 C56.35120522 42.27277401 56.44650707 43.20058925 57 46 C48.21385813 49.66290686 39.25484344 52.85146969 30.29711914 56.06347656 C27.70266783 56.99455667 25.11008561 57.93071081 22.51757812 58.8671875 C-12.42383918 71.44781183 -12.42383918 71.44781183 -25.609375 65.38671875 C-30.14823675 62.75388228 -34.03599535 59.41598557 -38 56 C-54.74759333 41.86193178 -54.74759333 41.86193178 -73.27734375 30.28125 C-75.43884578 28.67360223 -75.47507739 27.56875631 -76 25 C-65.53693959 20.71409839 -54.98717272 16.78691994 -44.3125 13.0625 C-42.81825315 12.53830725 -41.32411352 12.01380879 -39.83007812 11.48901367 C-33.36228298 9.21872491 -26.89004317 6.9611802 -20.41796875 4.703125 C-19.48364014 4.37691162 -18.54931152 4.05069824 -17.58666992 3.71459961 C-15.91162629 3.13042913 -14.23604096 2.54780864 -12.55981445 1.96704102 C-3.64961528 -1.13246172 -3.64961528 -1.13246172 0 0 Z M-13 5 C-14.35514163 5.4953841 -15.72101251 5.96194603 -17.09375 6.40625 C-18.28931519 6.79647339 -18.28931519 6.79647339 -19.5090332 7.19458008 C-20.33105225 7.46036865 -21.15307129 7.72615723 -22 8 C-39.14485913 13.61854334 -56.11425433 19.64578212 -73 26 C-72.34 26.33 -71.68 26.66 -71 27 C-71 27.66 -71 28.32 -71 29 C-68.82248821 30.59777524 -68.82248821 30.59777524 -66.125 32.125 C-65.22007812 32.66382813 -64.31515625 33.20265625 -63.3828125 33.7578125 C-61.15227978 35.1540893 -61.15227978 35.1540893 -59 35 C-59 35.66 -59 36.32 -59 37 C-57.63117511 37.93837681 -56.25554247 38.86785412 -54.85351562 39.75585938 C-50.50619154 42.67392623 -46.581588 46.21711183 -42.5703125 49.57421875 C-41.88195312 50.14269531 -41.19359375 50.71117187 -40.484375 51.296875 C-39.86272461 51.81604492 -39.24107422 52.33521484 -38.60058594 52.87011719 C-37.05421727 54.19223426 -37.05421727 54.19223426 -35 54 C-35 54.66 -35 55.32 -35 56 C-28.55929304 62.29678054 -20.38162011 66.19840405 -11.3671875 66.32421875 C-5.00039115 66.22863878 0.21866158 64.696713 6.125 62.4375 C7.11129395 62.07760986 8.09758789 61.71771973 9.11376953 61.34692383 C12.08530446 60.25470858 15.0441059 59.13379509 18 58 C18.87720703 57.66419922 19.75441406 57.32839844 20.65820312 56.98242188 C23.77043115 55.78541109 26.88065903 54.58488993 29.97705078 53.34741211 C34.27176409 51.63296089 38.59760262 50.10233308 42.9921875 48.6628418 C45.20388073 47.93269258 47.38668446 47.14326593 49.5625 46.3125 C50.696875 45.879375 51.83125 45.44625 53 45 C53 44.01 53 43.02 53 42 C52.3915625 41.70609375 51.783125 41.4121875 51.15625 41.109375 C41.74774256 36.29443296 31.73898356 30.03281529 24.41210938 22.33081055 C23.08081634 20.77138424 23.08081634 20.77138424 21 21 C20.505 19.515 20.505 19.515 20 18 C17.69645581 16.22339155 15.40504072 14.56374308 13 12.9375 C6.1235997 8.2471994 6.1235997 8.2471994 5 6 C3.35178756 4.96986723 1.68496298 3.96885372 0 3 C-0.495 2.505 -0.495 2.505 -1 2 C-5.96424374 1.53820988 -8.6611727 2.70297378 -13 5 Z " fill="#BC0101" transform="translate(455,318)"/>
<path d="M0 0 C2.28125 1.58203125 2.28125 1.58203125 4.5 3.8125 C8.39602145 7.53988769 12.36289581 10.96133936 16.625 14.25 C22.50430837 18.8030758 28.26529518 23.48303052 34.00244141 28.21362305 C39.08168774 32.358591 44.33593746 36.18427005 49.8359375 39.75415039 C51.5 40.87890625 51.5 40.87890625 54 43 C54 44.32 54 45.64 54 47 C44.3605598 50.57643336 34.71836933 54.13392738 25.00488281 57.50488281 C20.35661439 59.1314553 15.74715702 60.8458591 11.14453125 62.59765625 C9.33178711 63.28347778 9.33178711 63.28347778 7.48242188 63.9831543 C5.07302468 64.89693646 2.66664633 65.81872663 0.26367188 66.74926758 C-0.84814453 67.16974365 -1.95996094 67.59021973 -3.10546875 68.0234375 C-4.09699951 68.40419434 -5.08853027 68.78495117 -6.11010742 69.17724609 C-10.32612657 70.37754892 -13.62241296 70.74079796 -17.53515625 68.63671875 C-18.36917969 67.99347656 -19.20320312 67.35023438 -20.0625 66.6875 C-21.01640625 65.9553125 -21.9703125 65.223125 -22.953125 64.46875 C-26.66597268 61.46039136 -30.32146177 58.39202804 -33.95141602 55.28442383 C-46.03492652 44.95122056 -58.76944895 35.80067905 -72 27 C-71.95043945 25.18017578 -71.95043945 25.18017578 -71 23 C-68.56608232 21.8180274 -66.34823559 20.94591443 -63.79296875 20.1171875 C-63.04828339 19.86105179 -62.30359802 19.60491608 -61.53634644 19.34101868 C-59.09163061 18.50374764 -56.63994783 17.68931472 -54.1875 16.875 C-52.50457357 16.30411899 -50.82220246 15.7315984 -49.14038086 15.1574707 C-46.58302637 14.28475595 -44.02531255 13.41332147 -41.46540833 12.54811096 C-36.12560279 10.74110526 -30.81452857 8.87063302 -25.5234375 6.92578125 C-24.5576754 6.57229614 -24.5576754 6.57229614 -23.57240295 6.21166992 C-20.58074591 5.11577293 -17.59246484 4.01176419 -14.6081543 2.89599609 C-13.55281494 2.51137207 -12.49747559 2.12674805 -11.41015625 1.73046875 C-10.50402588 1.39426514 -9.59789551 1.05806152 -8.66430664 0.71166992 C-5.64154495 -0.09574787 -3.11610776 -0.23003912 0 0 Z M-8.6875 3.3125 C-9.51636719 3.55613281 -10.34523438 3.79976563 -11.19921875 4.05078125 C-14.05689942 4.97354114 -14.05689942 4.97354114 -16.9453125 6.296875 C-22.87844741 8.89096046 -29.06411213 10.84675724 -35.1875 12.9375 C-36.45125119 13.37151392 -37.71492361 13.80575726 -38.97851562 14.24023438 C-45.79892549 16.57997935 -52.62918681 18.88500726 -59.48071289 21.13208008 C-62.74147588 22.25544595 -65.86138434 23.57335652 -69 25 C-65.5798883 28.84762566 -61.53225744 31.60634022 -57 34 C-56.34 34 -55.68 34 -55 34 C-55 34.66 -55 35.32 -55 36 C-53.63117511 36.93837681 -52.25554247 37.86785412 -50.85351562 38.75585938 C-46.50619154 41.67392623 -42.581588 45.21711183 -38.5703125 48.57421875 C-37.88195312 49.14269531 -37.19359375 49.71117187 -36.484375 50.296875 C-35.86272461 50.81604492 -35.24107422 51.33521484 -34.60058594 51.87011719 C-33.05421727 53.19223426 -33.05421727 53.19223426 -31 53 C-30.67 53.99 -30.34 54.98 -30 56 C-27.71460724 57.82989883 -27.71460724 57.82989883 -25 59.5625 C-20.10074231 62.79851538 -20.10074231 62.79851538 -19 65 C-15.77519994 67.47529241 -15.77519994 67.47529241 -11.875 67.76953125 C-7.9243873 66.71209823 -4.10083152 65.37295812 -0.25 64 C0.61254395 63.69529785 1.47508789 63.3905957 2.36376953 63.07666016 C12.65988218 59.43038653 22.9319132 55.71627865 33.20556641 52.00732422 C38.79878929 49.99110566 44.39881618 47.99398136 50 46 C48.67789709 42.9881398 47.36610497 41.19459869 44.796875 39.15234375 C44.15363281 38.63542969 43.51039063 38.11851562 42.84765625 37.5859375 C41.80931641 36.76996094 41.80931641 36.76996094 40.75 35.9375 C40.03199219 35.36386719 39.31398438 34.79023438 38.57421875 34.19921875 C36.38944659 32.45756616 34.19646602 30.72687326 32 29 C31.38447266 28.51547363 30.76894531 28.03094727 30.13476562 27.53173828 C27.86365195 25.74574771 25.59112884 23.96162146 23.31396484 22.18334961 C17.92702218 17.96918445 12.62258207 13.65570404 7.328125 9.32617188 C0.23141931 2.80720942 0.23141931 2.80720942 -8.6875 3.3125 Z " fill="#BD0201" transform="translate(599,267)"/>
<path d="M0 0 C0.33 0 0.66 0 1 0 C2.13308059 10.73767979 3.14667197 21.47563448 3.96484375 32.2421875 C4.12691711 34.33724237 4.28902672 36.43229444 4.45117188 38.52734375 C4.69843013 41.73056332 4.94177724 44.93387701 5.17456055 48.13818359 C5.40568375 51.29884685 5.65261816 54.45794683 5.90234375 57.6171875 C5.9680809 58.5734201 6.03381805 59.52965271 6.10154724 60.51486206 C6.52673978 65.70508712 7.34565951 69.40843915 10 74 C10 74.66 10 75.32 10 76 C14.81663783 78.40831892 19.93905753 80.15965728 25 82 C25 179.02 25 276.04 25 376 C24.67 376 24.34 376 24 376 C23.67 279.64 23.34 183.28 23 84 C21.02 83.67 19.04 83.34 17 83 C11.43023773 80.7544832 7.61970021 77.3185587 4.9609375 71.87109375 C3.70817807 68.128093 3.31061212 64.40682165 2.9375 60.5 C2.85371094 59.67266357 2.76992188 58.84532715 2.68359375 57.99291992 C2.00200081 50.88744662 1.67381744 43.78174002 1.39648438 36.65087891 C1.1641503 31.17574298 0.69017777 25.80227183 -0.0625 20.375 C-2.23677885 4.47355769 -2.23677885 4.47355769 0 0 Z " fill="#B80100" transform="translate(286,384)"/>
<path d="M0 0 C5.35224142 3.14481982 8.59463027 7.15498457 10.57421875 13.09375 C11.1616039 19.08507854 9.87819269 23.18590522 6.57421875 28.09375 C1.44356641 32.96786972 -2.78407144 34.57729951 -9.76171875 34.40234375 C-14.91518345 33.80538816 -19.43624151 32.18300414 -23.0625 28.375 C-27.19824553 22.7816708 -28.22556848 17.86377992 -27.42578125 11.09375 C-25.61008775 5.7711742 -22.28749055 2.78320621 -17.42578125 0.09375 C-11.91953052 -1.74166691 -5.48828945 -2.05037545 0 0 Z M-24.42578125 9.09375 C-25.44849224 14.17410003 -25.54486145 19.60643589 -23.390625 24.39453125 C-19.80810203 29.05480486 -15.14999592 31.15305738 -9.42578125 32.09375 C-3.37370325 31.88859481 1.44750731 30.27856831 5.71875 25.890625 C7.95092528 22.52591447 8.11165484 20.59941193 8.07421875 16.59375 C8.08453125 15.4903125 8.09484375 14.386875 8.10546875 13.25 C7.24198517 8.11989169 4.52064516 5.79410554 0.44921875 2.78125 C-8.68194235 -2.01946774 -18.17502689 1.45246766 -24.42578125 9.09375 Z " fill="#BB0201" transform="translate(344.42578125,374.90625)"/>
<path d="M0 0 C0.99 0 1.98 0 3 0 C3.02690104 2.79173055 3.04679053 5.58320348 3.0625 8.375 C3.07087891 9.1690625 3.07925781 9.963125 3.08789062 10.78125 C3.11328125 16.7734375 3.11328125 16.7734375 2 19 C1.34 19 0.68 19 0 19 C0 12.73 0 6.46 0 0 Z " fill="#C20908" transform="translate(284,367)"/>
<path d="M0 0 C0.33 0 0.66 0 1 0 C1.1953125 2.05078125 1.390625 4.1015625 1.5859375 6.15234375 C1.72257812 6.76207031 1.85921875 7.37179687 2 8 C2.66 8.33 3.32 8.66 4 9 C3.01 9.495 3.01 9.495 2 10 C-0.0625 8.25 -0.0625 8.25 -2 6 C-1.78842197 3.60211564 -1.07207819 2.14415639 0 0 Z " fill="#C20A07" transform="translate(366,719)"/>
</svg>
