<?xml version="1.0" encoding="UTF-8"?>
<svg xmlns="http://www.w3.org/2000/svg" xmlns:xlink="http://www.w3.org/1999/xlink" width="96px" height="96px" viewBox="0 0 96 96" version="1.1">
<g id="surface1">
<path style=" stroke:none;fill-rule:nonzero;fill:rgb(76.47059%,7.843138%,6.666667%);fill-opacity:1;" d="M 61.28125 21.90625 C 62.023438 22.632812 62.398438 23.578125 62.710938 24.554688 C 62.820312 24.859375 62.9375 25.148438 63.070312 25.4375 C 63.3125 26 63.53125 26.5625 63.742188 27.125 C 63.890625 27.539062 64.054688 27.9375 64.242188 28.328125 C 64.414062 28.75 64.460938 29.171875 64.40625 29.625 C 64.164062 30.21875 63.835938 30.453125 63.28125 30.75 C 63.023438 30.859375 62.757812 30.945312 62.484375 31.023438 C 62.335938 31.070312 62.1875 31.117188 62.039062 31.164062 C 61.96875 31.1875 61.890625 31.21875 61.8125 31.242188 C 61.351562 31.390625 60.898438 31.570312 60.445312 31.742188 C 60.125 31.867188 59.796875 31.976562 59.46875 32.085938 C 59.085938 32.210938 58.710938 32.34375 58.328125 32.476562 C 57.804688 32.664062 57.28125 32.84375 56.75 33.015625 C 56.34375 33.148438 55.953125 33.304688 55.554688 33.46875 C 55.195312 33.609375 54.828125 33.726562 54.46875 33.84375 C 54.21875 33.929688 53.96875 34.015625 53.71875 34.109375 C 53.21875 34.289062 52.71875 34.46875 52.21875 34.640625 C 51.054688 35.039062 51.054688 35.039062 49.90625 35.492188 C 49.671875 35.59375 49.445312 35.679688 49.203125 35.757812 C 48.773438 35.898438 48.335938 36.046875 47.90625 36.203125 C 47.789062 36.242188 47.789062 36.242188 47.664062 36.28125 C 46.4375 36.71875 45.203125 37.164062 43.976562 37.609375 C 43.640625 37.726562 43.304688 37.851562 42.96875 37.96875 C 42.585938 38.101562 42.234375 38.265625 41.882812 38.453125 C 41.71875 38.53125 41.71875 38.53125 41.445312 38.632812 C 41.382812 38.65625 41.3125 38.6875 41.25 38.71875 C 41.21875 38.8125 41.1875 38.90625 41.15625 39 C 41.210938 39 41.257812 39 41.3125 39 C 44.328125 39 47.351562 39.007812 50.367188 39.015625 C 50.726562 39.015625 51.09375 39.015625 51.453125 39.015625 C 51.523438 39.023438 51.601562 39.023438 51.671875 39.023438 C 52.84375 39.023438 54.007812 39.023438 55.179688 39.023438 C 56.375 39.023438 57.578125 39.03125 58.773438 39.03125 C 59.515625 39.039062 60.257812 39.039062 60.992188 39.039062 C 61.5625 39.039062 62.125 39.039062 62.695312 39.039062 C 62.929688 39.039062 63.164062 39.039062 63.390625 39.039062 C 63.710938 39.039062 64.03125 39.039062 64.34375 39.046875 C 64.4375 39.046875 64.53125 39.046875 64.625 39.039062 C 65.195312 39.046875 65.53125 39.132812 66 39.46875 C 66.6875 40.179688 66.695312 40.898438 66.695312 41.835938 C 66.695312 41.960938 66.695312 42.085938 66.695312 42.210938 C 66.695312 42.5625 66.695312 42.90625 66.695312 43.25 C 66.695312 43.625 66.695312 44 66.695312 44.375 C 66.695312 45.109375 66.695312 45.84375 66.695312 46.578125 C 66.695312 47.171875 66.695312 47.773438 66.695312 48.367188 C 66.695312 48.453125 66.695312 48.539062 66.695312 48.625 C 66.695312 48.796875 66.695312 48.96875 66.695312 49.140625 C 66.703125 50.757812 66.695312 52.375 66.695312 53.992188 C 66.695312 55.476562 66.695312 56.953125 66.703125 58.429688 C 66.703125 59.953125 66.703125 61.46875 66.703125 62.992188 C 66.703125 63.84375 66.703125 64.695312 66.703125 65.546875 C 66.703125 66.273438 66.703125 67 66.703125 67.726562 C 66.703125 68.101562 66.703125 68.46875 66.703125 68.835938 C 66.703125 69.179688 66.703125 69.515625 66.703125 69.859375 C 66.703125 70.039062 66.703125 70.21875 66.703125 70.398438 C 66.695312 71.359375 66.507812 72.257812 65.90625 73.03125 C 65.84375 73.109375 65.78125 73.195312 65.71875 73.273438 C 65.539062 73.492188 65.367188 73.695312 65.15625 73.875 C 65.0625 73.875 64.96875 73.875 64.875 73.875 C 64.875 73.9375 64.875 74 64.875 74.0625 C 64.726562 74.140625 64.578125 74.21875 64.421875 74.289062 C 64.34375 74.335938 64.257812 74.375 64.171875 74.421875 C 63.804688 74.59375 63.53125 74.640625 63.125 74.640625 C 63.015625 74.640625 62.90625 74.640625 62.796875 74.640625 C 62.671875 74.640625 62.546875 74.640625 62.421875 74.640625 C 62.289062 74.640625 62.164062 74.640625 62.03125 74.640625 C 61.671875 74.640625 61.3125 74.640625 60.953125 74.640625 C 60.648438 74.648438 60.335938 74.648438 60.03125 74.648438 C 59.015625 74.648438 58 74.648438 56.984375 74.65625 C 56.71875 74.65625 56.453125 74.65625 56.1875 74.65625 C 54.546875 74.65625 52.90625 74.664062 51.257812 74.664062 C 50.882812 74.664062 50.5 74.664062 50.117188 74.664062 C 50.023438 74.664062 49.929688 74.664062 49.828125 74.664062 C 48.296875 74.664062 46.765625 74.671875 45.234375 74.671875 C 43.664062 74.679688 42.09375 74.679688 40.523438 74.679688 C 39.640625 74.679688 38.757812 74.679688 37.875 74.6875 C 37.117188 74.6875 36.367188 74.695312 35.617188 74.6875 C 35.234375 74.6875 34.851562 74.6875 34.460938 74.695312 C 34.109375 74.695312 33.757812 74.695312 33.40625 74.695312 C 33.226562 74.695312 33.039062 74.695312 32.851562 74.695312 C 31.898438 74.6875 31.101562 74.40625 30.375 73.78125 C 30.375 73.71875 30.375 73.65625 30.375 73.59375 C 30.320312 73.570312 30.265625 73.554688 30.210938 73.53125 C 29.546875 73.140625 29.234375 72.3125 29.023438 71.609375 C 28.921875 71.140625 28.929688 70.671875 28.9375 70.1875 C 28.9375 70.078125 28.9375 69.960938 28.9375 69.84375 C 28.9375 69.53125 28.9375 69.226562 28.9375 68.914062 C 28.9375 68.578125 28.9375 68.242188 28.9375 67.90625 C 28.9375 67.320312 28.9375 66.742188 28.9375 66.15625 C 28.9375 65.3125 28.945312 64.476562 28.945312 63.632812 C 28.945312 62.265625 28.945312 60.90625 28.945312 59.539062 C 28.953125 58.210938 28.953125 56.882812 28.953125 55.5625 C 28.953125 55.476562 28.953125 55.398438 28.953125 55.3125 C 28.953125 54.898438 28.953125 54.492188 28.953125 54.078125 C 28.960938 50.679688 28.960938 47.273438 28.96875 43.875 C 28.835938 43.851562 28.835938 43.851562 28.695312 43.835938 C 28.210938 43.75 27.875 43.539062 27.53125 43.179688 C 27.21875 42.695312 27.140625 42.234375 27.085938 41.671875 C 27.078125 41.59375 27.070312 41.515625 27.0625 41.4375 C 27 40.789062 26.976562 40.148438 26.953125 39.507812 C 26.921875 38.820312 26.84375 38.140625 26.757812 37.453125 C 26.664062 36.65625 26.59375 35.875 26.59375 35.078125 C 26.59375 34.953125 26.59375 34.953125 26.59375 34.828125 C 26.601562 34.429688 26.625 34.117188 26.8125 33.75 C 26.875 33.75 26.9375 33.75 27 33.75 C 27.007812 33.695312 27.007812 33.640625 27.015625 33.585938 C 27.132812 33.28125 27.289062 33.1875 27.5625 33 C 27.835938 32.875 28.125 32.78125 28.414062 32.6875 C 28.578125 32.632812 28.75 32.578125 28.914062 32.515625 C 29.046875 32.476562 29.046875 32.476562 29.179688 32.429688 C 29.671875 32.265625 30.164062 32.085938 30.65625 31.914062 C 31.117188 31.75 31.578125 31.601562 32.046875 31.46875 C 32.320312 31.382812 32.5625 31.257812 32.8125 31.125 C 32.9375 31.078125 33.0625 31.039062 33.1875 30.992188 C 33.265625 30.96875 33.34375 30.945312 33.414062 30.921875 C 33.5 30.898438 33.578125 30.867188 33.65625 30.84375 C 33.8125 30.789062 33.96875 30.742188 34.132812 30.6875 C 34.210938 30.65625 34.289062 30.632812 34.375 30.601562 C 34.546875 30.546875 34.710938 30.492188 34.882812 30.4375 C 35.25 30.3125 35.609375 30.195312 35.976562 30.070312 C 36.070312 30.039062 36.164062 30.007812 36.265625 29.976562 C 36.382812 29.9375 36.382812 29.9375 36.5 29.898438 C 36.765625 29.804688 37.03125 29.710938 37.296875 29.609375 C 37.65625 29.46875 38.023438 29.335938 38.382812 29.203125 C 38.5 29.164062 38.5 29.164062 38.609375 29.117188 C 39.046875 28.960938 39.476562 28.804688 39.914062 28.664062 C 40.273438 28.546875 40.632812 28.421875 40.984375 28.296875 C 41.0625 28.265625 41.148438 28.242188 41.226562 28.210938 C 41.9375 27.960938 42.640625 27.703125 43.34375 27.445312 C 43.820312 27.265625 44.304688 27.109375 44.804688 26.96875 C 45.070312 26.882812 45.3125 26.75 45.5625 26.625 C 45.757812 26.554688 45.953125 26.492188 46.15625 26.429688 C 46.5625 26.289062 46.96875 26.140625 47.367188 25.992188 C 47.640625 25.90625 47.90625 25.820312 48.171875 25.742188 C 48.625 25.601562 49.070312 25.453125 49.515625 25.296875 C 49.679688 25.234375 49.84375 25.179688 50.007812 25.125 C 50.09375 25.09375 50.179688 25.0625 50.265625 25.03125 C 50.734375 24.867188 51.203125 24.703125 51.671875 24.539062 C 51.757812 24.507812 51.84375 24.476562 51.929688 24.445312 C 52.429688 24.273438 52.921875 24.109375 53.429688 23.96875 C 53.640625 23.90625 53.640625 23.90625 53.90625 23.765625 C 54.226562 23.609375 54.539062 23.515625 54.875 23.421875 C 55.109375 23.34375 55.34375 23.265625 55.578125 23.179688 C 56.171875 22.960938 56.765625 22.765625 57.367188 22.570312 C 57.828125 22.414062 58.28125 22.25 58.734375 22.0625 C 59.5625 21.726562 60.429688 21.515625 61.28125 21.90625 Z M 55.34375 25.34375 C 55.265625 25.367188 55.1875 25.390625 55.109375 25.414062 C 54.835938 25.5 54.835938 25.5 54.570312 25.625 C 54.007812 25.867188 53.429688 26.046875 52.859375 26.242188 C 52.742188 26.28125 52.617188 26.328125 52.5 26.367188 C 51.859375 26.585938 51.21875 26.804688 50.578125 27.015625 C 50.273438 27.117188 49.984375 27.242188 49.6875 27.375 C 50.007812 27.734375 50.390625 27.992188 50.8125 28.21875 C 50.875 28.21875 50.9375 28.21875 51 28.21875 C 51 28.28125 51 28.34375 51 28.40625 C 51.125 28.492188 51.257812 28.578125 51.390625 28.664062 C 51.796875 28.9375 52.164062 29.273438 52.539062 29.585938 C 52.601562 29.640625 52.671875 29.695312 52.734375 29.75 C 52.796875 29.796875 52.851562 29.84375 52.914062 29.890625 C 53.054688 30.015625 53.054688 30.015625 53.25 30 C 53.28125 30.09375 53.3125 30.1875 53.34375 30.28125 C 53.554688 30.453125 53.554688 30.453125 53.8125 30.617188 C 54.273438 30.921875 54.273438 30.921875 54.375 31.125 C 54.679688 31.359375 54.679688 31.359375 55.046875 31.382812 C 55.414062 31.289062 55.773438 31.15625 56.132812 31.03125 C 56.210938 31 56.296875 30.976562 56.375 30.945312 C 57.34375 30.601562 58.304688 30.257812 59.265625 29.90625 C 59.796875 29.71875 60.320312 29.53125 60.84375 29.34375 C 60.71875 29.0625 60.59375 28.890625 60.359375 28.703125 C 60.296875 28.65625 60.234375 28.601562 60.171875 28.554688 C 60.078125 28.476562 60.078125 28.476562 59.976562 28.398438 C 59.90625 28.34375 59.84375 28.289062 59.773438 28.234375 C 59.570312 28.070312 59.359375 27.914062 59.15625 27.75 C 59.101562 27.703125 59.039062 27.65625 58.984375 27.609375 C 58.765625 27.445312 58.554688 27.28125 58.34375 27.109375 C 57.835938 26.71875 57.335938 26.3125 56.84375 25.90625 C 56.179688 25.296875 56.179688 25.296875 55.34375 25.34375 Z M 41.4375 30.28125 C 41.3125 30.328125 41.179688 30.375 41.054688 30.414062 C 40.945312 30.453125 40.945312 30.453125 40.828125 30.484375 C 40.75 30.515625 40.671875 30.539062 40.59375 30.5625 C 38.984375 31.085938 37.398438 31.65625 35.8125 32.25 C 35.875 32.28125 35.9375 32.3125 36 32.34375 C 36 32.40625 36 32.46875 36 32.53125 C 36.203125 32.679688 36.203125 32.679688 36.453125 32.828125 C 36.539062 32.875 36.625 32.921875 36.710938 32.976562 C 36.921875 33.109375 36.921875 33.109375 37.125 33.09375 C 37.125 33.15625 37.125 33.21875 37.125 33.28125 C 37.25 33.367188 37.382812 33.453125 37.515625 33.539062 C 37.921875 33.8125 38.289062 34.148438 38.664062 34.460938 C 38.726562 34.515625 38.796875 34.570312 38.859375 34.625 C 38.921875 34.671875 38.976562 34.71875 39.039062 34.765625 C 39.179688 34.890625 39.179688 34.890625 39.375 34.875 C 39.375 34.9375 39.375 35 39.375 35.0625 C 39.976562 35.65625 40.742188 36.015625 41.59375 36.03125 C 42.1875 36.023438 42.679688 35.875 43.234375 35.664062 C 43.320312 35.632812 43.414062 35.601562 43.507812 35.5625 C 43.789062 35.460938 44.070312 35.359375 44.34375 35.25 C 44.429688 35.21875 44.507812 35.1875 44.59375 35.15625 C 44.882812 35.039062 45.179688 34.929688 45.46875 34.8125 C 45.867188 34.65625 46.273438 34.507812 46.6875 34.375 C 46.890625 34.304688 47.101562 34.234375 47.304688 34.15625 C 47.40625 34.117188 47.515625 34.070312 47.625 34.03125 C 47.625 33.9375 47.625 33.84375 47.625 33.75 C 47.570312 33.71875 47.507812 33.695312 47.453125 33.664062 C 46.570312 33.21875 45.632812 32.625 44.945312 31.90625 C 44.820312 31.757812 44.820312 31.757812 44.625 31.78125 C 44.578125 31.640625 44.578125 31.640625 44.53125 31.5 C 44.3125 31.335938 44.101562 31.179688 43.875 31.023438 C 43.226562 30.585938 43.226562 30.585938 43.125 30.375 C 42.96875 30.28125 42.8125 30.1875 42.65625 30.09375 C 42.609375 30.046875 42.609375 30.046875 42.5625 30 C 42.09375 29.953125 41.84375 30.0625 41.4375 30.28125 Z M 30 36 C 29.90625 36.476562 29.898438 36.984375 30.09375 37.4375 C 30.429688 37.875 30.867188 38.070312 31.40625 38.15625 C 31.976562 38.140625 32.421875 37.984375 32.828125 37.578125 C 33.039062 37.257812 33.046875 37.078125 33.046875 36.703125 C 33.046875 36.601562 33.046875 36.5 33.046875 36.390625 C 32.96875 35.90625 32.710938 35.6875 32.328125 35.40625 C 31.476562 34.960938 30.585938 35.28125 30 36 Z M 42.09375 45.09375 C 42.015625 45.15625 41.929688 45.21875 41.84375 45.289062 C 41.578125 45.507812 41.375 45.765625 41.15625 46.03125 C 41.078125 46.101562 41.007812 46.179688 40.929688 46.25 C 40.3125 46.882812 39.929688 47.578125 39.5625 48.375 C 39.5 48.492188 39.5 48.492188 39.4375 48.617188 C 38.265625 51.078125 38.25 54.414062 39.117188 56.96875 C 39.226562 57.234375 39.34375 57.492188 39.46875 57.75 C 39.5 57.8125 39.523438 57.875 39.554688 57.945312 C 39.921875 58.742188 40.429688 59.484375 41.0625 60.09375 C 41.15625 60.203125 41.25 60.3125 41.335938 60.421875 C 41.59375 60.726562 41.867188 60.976562 42.1875 61.21875 C 42.25 61.21875 42.3125 61.21875 42.375 61.21875 C 42.375 61.28125 42.375 61.34375 42.375 61.40625 C 42.585938 61.554688 42.789062 61.679688 43.007812 61.8125 C 43.070312 61.851562 43.132812 61.882812 43.203125 61.921875 C 43.75 62.242188 44.3125 62.5 44.90625 62.71875 C 44.960938 62.742188 45.023438 62.765625 45.078125 62.789062 C 47.34375 63.671875 50.289062 63.546875 52.546875 62.679688 C 53.65625 62.179688 54.789062 61.578125 55.5625 60.617188 C 55.6875 60.46875 55.6875 60.46875 55.84375 60.320312 C 55.992188 60.195312 55.992188 60.195312 55.96875 60 C 56.0625 59.96875 56.15625 59.9375 56.25 59.90625 C 56.40625 59.6875 56.40625 59.6875 56.546875 59.429688 C 56.601562 59.34375 56.648438 59.257812 56.703125 59.171875 C 56.757812 59.070312 56.757812 59.070312 56.8125 58.96875 C 56.421875 58.710938 56.03125 58.460938 55.632812 58.210938 C 55.484375 58.117188 55.484375 58.117188 55.320312 58.023438 C 55.179688 57.9375 55.179688 57.9375 55.03125 57.84375 C 54.945312 57.789062 54.859375 57.734375 54.773438 57.679688 C 54.578125 57.546875 54.578125 57.546875 54.375 57.5625 C 54.375 57.5 54.375 57.4375 54.375 57.375 C 54.273438 57.3125 54.171875 57.25 54.070312 57.179688 C 54.015625 57.148438 53.960938 57.109375 53.898438 57.070312 C 53.71875 56.984375 53.71875 56.984375 53.523438 57.015625 C 53.265625 57.125 53.164062 57.335938 53.015625 57.5625 C 52.1875 58.664062 50.726562 59.242188 49.40625 59.4375 C 48.1875 59.546875 47.070312 59.335938 46.015625 58.695312 C 45.835938 58.578125 45.835938 58.578125 45.5625 58.484375 C 45.5 58.460938 45.4375 58.4375 45.375 58.40625 C 45.34375 58.3125 45.3125 58.21875 45.28125 58.125 C 45.140625 58.007812 45.007812 57.890625 44.867188 57.773438 C 44.570312 57.539062 44.367188 57.359375 44.25 57 C 44.1875 57 44.125 57 44.0625 57 C 44.039062 56.914062 44.015625 56.835938 43.984375 56.75 C 43.890625 56.445312 43.890625 56.445312 43.742188 56.210938 C 42.84375 54.71875 42.882812 52.742188 43.21875 51.09375 C 43.523438 50.117188 44.03125 49.125 44.851562 48.492188 C 45.023438 48.367188 45.023438 48.367188 45.210938 48.140625 C 46.21875 47.21875 47.546875 46.929688 48.875 46.945312 C 49.765625 47.007812 50.65625 47.234375 51.414062 47.726562 C 51.5625 47.828125 51.5625 47.828125 51.75 47.8125 C 51.75 47.875 51.75 47.9375 51.75 48 C 51.84375 48.03125 51.9375 48.0625 52.03125 48.09375 C 52.171875 48.242188 52.171875 48.242188 52.320312 48.421875 C 52.515625 48.671875 52.515625 48.671875 52.78125 48.84375 C 52.921875 49.054688 53.03125 49.28125 53.15625 49.5 C 53.445312 49.390625 53.726562 49.265625 54 49.125 C 54 49.0625 54 49 54 48.9375 C 54.085938 48.914062 54.171875 48.890625 54.257812 48.859375 C 54.546875 48.757812 54.695312 48.648438 54.9375 48.46875 C 55.101562 48.375 55.265625 48.289062 55.429688 48.195312 C 55.875 47.960938 56.296875 47.710938 56.71875 47.4375 C 56.59375 46.976562 56.398438 46.65625 56.109375 46.273438 C 56.070312 46.226562 56.03125 46.171875 55.992188 46.125 C 55.898438 45.992188 55.789062 45.875 55.6875 45.75 C 55.625 45.75 55.5625 45.75 55.5 45.75 C 55.40625 45.5625 55.40625 45.5625 55.3125 45.375 C 55.25 45.375 55.1875 45.375 55.125 45.375 C 55.101562 45.320312 55.085938 45.265625 55.0625 45.210938 C 54.445312 44.171875 52.53125 43.484375 51.445312 43.195312 C 48.171875 42.523438 44.75 42.976562 42.09375 45.09375 Z M 34.5 67.21875 C 34.367188 67.484375 34.382812 67.679688 34.40625 67.96875 C 34.554688 68.15625 34.664062 68.234375 34.875 68.34375 C 35.015625 68.351562 35.15625 68.359375 35.296875 68.359375 C 35.390625 68.359375 35.476562 68.359375 35.570312 68.359375 C 35.71875 68.359375 35.71875 68.359375 35.875 68.359375 C 35.976562 68.359375 36.085938 68.359375 36.195312 68.359375 C 36.546875 68.359375 36.898438 68.359375 37.257812 68.359375 C 37.507812 68.359375 37.765625 68.367188 38.015625 68.367188 C 38.773438 68.367188 39.539062 68.367188 40.296875 68.367188 C 40.515625 68.367188 40.734375 68.367188 40.945312 68.367188 C 42.28125 68.375 43.617188 68.375 44.953125 68.375 C 45.257812 68.375 45.570312 68.375 45.875 68.375 C 45.953125 68.375 46.03125 68.375 46.109375 68.375 C 47.359375 68.375 48.601562 68.382812 49.851562 68.382812 C 51.125 68.390625 52.40625 68.390625 53.6875 68.390625 C 54.398438 68.390625 55.117188 68.390625 55.835938 68.398438 C 56.453125 68.398438 57.0625 68.398438 57.671875 68.398438 C 57.984375 68.398438 58.296875 68.398438 58.609375 68.398438 C 58.945312 68.40625 59.28125 68.398438 59.625 68.398438 C 59.71875 68.398438 59.820312 68.40625 59.921875 68.40625 C 60.367188 68.398438 60.585938 68.398438 60.953125 68.125 C 61.140625 67.890625 61.140625 67.890625 61.171875 67.625 C 61.117188 67.367188 61.054688 67.28125 60.84375 67.125 C 60.578125 67.039062 60.40625 67.015625 60.125 67.015625 C 60.039062 67.015625 59.945312 67.015625 59.859375 67.015625 C 59.710938 67.015625 59.710938 67.015625 59.554688 67.015625 C 59.398438 67.015625 59.398438 67.015625 59.234375 67.015625 C 58.882812 67.015625 58.53125 67.015625 58.179688 67.015625 C 57.929688 67.015625 57.671875 67.015625 57.421875 67.015625 C 56.804688 67.015625 56.1875 67.015625 55.570312 67.015625 C 55.070312 67.015625 54.570312 67.015625 54.070312 67.015625 C 52.65625 67.015625 51.234375 67.015625 49.820312 67.015625 C 49.742188 67.015625 49.664062 67.015625 49.585938 67.015625 C 49.507812 67.015625 49.4375 67.015625 49.351562 67.015625 C 48.117188 67.015625 46.875 67.015625 45.632812 67.007812 C 44.359375 67.007812 43.085938 67.007812 41.8125 67.007812 C 41.09375 67.007812 40.375 67.007812 39.664062 67.007812 C 39.054688 67.007812 38.445312 67.007812 37.835938 67.007812 C 37.523438 67.007812 37.210938 67.007812 36.90625 67.007812 C 36.570312 67.007812 36.226562 67.007812 35.890625 67.007812 C 35.796875 67.007812 35.695312 67.007812 35.59375 67.007812 C 35.507812 67.007812 35.414062 67.007812 35.320312 67.007812 C 35.203125 67.007812 35.203125 67.007812 35.085938 67.007812 C 34.851562 67.03125 34.703125 67.09375 34.5 67.21875 Z M 34.5 67.21875 "/>
<path style=" stroke:none;fill-rule:nonzero;fill:rgb(73.725492%,0.784314%,0.392157%);fill-opacity:1;" d="M 55.046875 44.875 C 55.671875 45.40625 56.171875 46 56.625 46.6875 C 56.671875 46.742188 56.710938 46.804688 56.757812 46.867188 C 57 47.195312 57 47.195312 56.984375 47.4375 C 56.875 47.695312 56.742188 47.757812 56.5 47.890625 C 56.414062 47.945312 56.328125 47.992188 56.234375 48.039062 C 55.984375 48.179688 55.734375 48.3125 55.484375 48.445312 C 54.960938 48.726562 54.453125 49.046875 53.953125 49.375 C 53.859375 49.429688 53.859375 49.429688 53.765625 49.492188 C 53.6875 49.546875 53.6875 49.546875 53.601562 49.601562 C 53.421875 49.695312 53.257812 49.742188 53.0625 49.78125 C 53.023438 49.71875 52.984375 49.664062 52.945312 49.601562 C 52.171875 48.460938 51.3125 47.695312 49.960938 47.3125 C 48.398438 47.039062 46.921875 47.210938 45.601562 48.117188 C 45.53125 48.171875 45.453125 48.226562 45.375 48.28125 C 45.3125 48.328125 45.25 48.367188 45.1875 48.414062 C 44.164062 49.21875 43.578125 50.515625 43.351562 51.765625 C 43.125 53.765625 43.390625 55.640625 44.65625 57.265625 C 45.578125 58.335938 46.851562 59.101562 48.28125 59.25 C 49.78125 59.273438 51.242188 58.921875 52.382812 57.882812 C 52.484375 57.78125 52.585938 57.671875 52.6875 57.5625 C 52.75 57.5625 52.8125 57.5625 52.875 57.5625 C 52.898438 57.507812 52.921875 57.460938 52.945312 57.40625 C 53.085938 57.148438 53.25 56.9375 53.4375 56.71875 C 53.9375 56.859375 54.320312 57.09375 54.75 57.382812 C 54.890625 57.476562 55.03125 57.570312 55.171875 57.65625 C 55.242188 57.703125 55.3125 57.75 55.382812 57.804688 C 55.585938 57.929688 55.78125 58.054688 55.984375 58.179688 C 56.046875 58.21875 56.109375 58.257812 56.171875 58.296875 C 56.28125 58.359375 56.398438 58.429688 56.515625 58.5 C 56.726562 58.632812 56.882812 58.734375 57 58.96875 C 57 59.21875 56.921875 59.34375 56.78125 59.554688 C 56.742188 59.617188 56.695312 59.6875 56.65625 59.757812 C 56.617188 59.804688 56.570312 59.851562 56.53125 59.90625 C 56.46875 59.90625 56.40625 59.90625 56.34375 59.90625 C 56.320312 59.96875 56.304688 60.039062 56.28125 60.109375 C 55.632812 61.507812 53.78125 62.445312 52.414062 62.960938 C 51.890625 63.148438 51.359375 63.28125 50.8125 63.375 C 50.703125 63.390625 50.59375 63.414062 50.484375 63.429688 C 47.617188 63.875 44.679688 63.320312 42.3125 61.609375 C 41.367188 60.898438 40.5625 60.0625 39.9375 59.0625 C 39.898438 59.007812 39.859375 58.945312 39.8125 58.890625 C 38.757812 57.34375 38.421875 55.335938 38.421875 53.507812 C 38.421875 53.3125 38.421875 53.125 38.414062 52.929688 C 38.414062 52.234375 38.445312 51.578125 38.625 50.90625 C 38.851562 51.25 38.796875 51.453125 38.71875 51.84375 C 38.601562 53.851562 38.648438 55.914062 39.5625 57.75 C 39.59375 57.8125 39.617188 57.875 39.648438 57.945312 C 39.882812 58.453125 40.203125 58.90625 40.515625 59.367188 C 40.6875 59.625 40.6875 59.625 40.796875 59.84375 C 40.867188 60.015625 40.867188 60.015625 41.046875 60.085938 C 41.320312 60.21875 41.445312 60.421875 41.625 60.65625 C 41.695312 60.710938 41.765625 60.757812 41.835938 60.8125 C 41.890625 60.851562 41.945312 60.898438 42 60.9375 C 42 61 42 61.0625 42 61.125 C 42.125 61.15625 42.25 61.1875 42.375 61.21875 C 42.375 61.28125 42.375 61.34375 42.375 61.40625 C 42.445312 61.429688 42.515625 61.460938 42.585938 61.484375 C 42.835938 61.585938 43.046875 61.710938 43.273438 61.859375 C 43.796875 62.179688 44.335938 62.40625 44.90625 62.625 C 44.960938 62.648438 45.023438 62.671875 45.085938 62.695312 C 47.34375 63.578125 50.289062 63.453125 52.546875 62.585938 C 53.296875 62.25 54.0625 61.867188 54.6875 61.335938 C 54.9375 61.125 54.9375 61.125 55.125 61.125 C 55.1875 61 55.25 60.875 55.3125 60.75 C 55.375 60.75 55.4375 60.75 55.5 60.75 C 55.5625 60.625 55.625 60.5 55.6875 60.375 C 55.75 60.375 55.8125 60.375 55.875 60.375 C 55.882812 60.320312 55.882812 60.273438 55.890625 60.21875 C 56 59.914062 56.210938 59.757812 56.4375 59.53125 C 56.609375 59.234375 56.609375 59.234375 56.71875 58.96875 C 56.65625 58.929688 56.585938 58.890625 56.523438 58.851562 C 56.234375 58.671875 55.945312 58.5 55.65625 58.320312 C 55.234375 58.054688 54.804688 57.804688 54.375 57.5625 C 54.375 57.5 54.375 57.4375 54.375 57.375 C 54.320312 57.367188 54.265625 57.351562 54.203125 57.34375 C 54 57.28125 54 57.28125 53.71875 57.09375 C 53.625 57.09375 53.53125 57.09375 53.4375 57.09375 C 53.304688 57.234375 53.304688 57.234375 53.1875 57.429688 C 52.375 58.570312 51.078125 59.203125 49.726562 59.484375 C 48.320312 59.6875 47.046875 59.445312 45.84375 58.6875 C 45.71875 58.617188 45.71875 58.617188 45.585938 58.546875 C 45.234375 58.3125 44.96875 58.015625 44.703125 57.6875 C 44.53125 57.453125 44.53125 57.453125 44.25 57.28125 C 44.25 57.1875 44.25 57.09375 44.25 57 C 44.1875 57 44.125 57 44.0625 57 C 42.976562 55.132812 42.6875 53.21875 43.125 51.09375 C 43.34375 50.375 43.757812 49.203125 44.453125 48.828125 C 44.539062 48.789062 44.539062 48.789062 44.625 48.75 C 44.742188 48.5625 44.742188 48.5625 44.8125 48.375 C 44.875 48.375 44.9375 48.375 45 48.375 C 45.023438 48.320312 45.046875 48.265625 45.070312 48.203125 C 45.460938 47.53125 46.570312 47.203125 47.289062 47 C 48.78125 46.648438 50.273438 46.929688 51.578125 47.703125 C 51.632812 47.742188 51.6875 47.773438 51.75 47.8125 C 51.75 47.875 51.75 47.9375 51.75 48 C 51.804688 48 51.851562 48.007812 51.90625 48.015625 C 52.234375 48.132812 52.382812 48.390625 52.59375 48.65625 C 52.6875 48.71875 52.78125 48.78125 52.875 48.84375 C 52.976562 49.03125 53.070312 49.21875 53.15625 49.40625 C 53.226562 49.375 53.296875 49.351562 53.367188 49.320312 C 53.578125 49.234375 53.78125 49.171875 54 49.125 C 54 49.0625 54 49 54 48.9375 C 54.171875 48.8125 54.171875 48.8125 54.40625 48.679688 C 54.492188 48.632812 54.578125 48.578125 54.664062 48.53125 C 55.015625 48.328125 55.375 48.132812 55.726562 47.945312 C 56.03125 47.78125 56.328125 47.609375 56.625 47.4375 C 56.375 46.585938 55.828125 45.90625 55.125 45.375 C 55.023438 45.265625 55.023438 45.265625 54.914062 45.15625 C 53.179688 43.492188 50.78125 42.96875 48.445312 43.015625 C 45.898438 43.140625 43.445312 43.734375 41.625 45.65625 C 41.523438 45.742188 41.421875 45.820312 41.3125 45.90625 C 40.546875 46.5625 40.070312 47.46875 39.65625 48.375 C 39.609375 48.46875 39.570312 48.570312 39.523438 48.664062 C 39.304688 49.164062 39.148438 49.632812 39.046875 50.171875 C 38.984375 50.398438 38.882812 50.546875 38.71875 50.71875 C 38.632812 49.015625 39.734375 47.25 40.820312 46.015625 C 40.960938 45.867188 41.109375 45.710938 41.25 45.5625 C 41.328125 45.476562 41.414062 45.390625 41.492188 45.304688 C 45 41.890625 51.351562 41.78125 55.046875 44.875 Z M 55.046875 44.875 "/>
<path style=" stroke:none;fill-rule:nonzero;fill:rgb(73.333335%,0.784314%,0.392157%);fill-opacity:1;" d="M 66.21875 39.6875 C 66.671875 40.414062 66.695312 40.984375 66.695312 41.835938 C 66.695312 41.960938 66.695312 42.085938 66.695312 42.210938 C 66.695312 42.5625 66.695312 42.90625 66.695312 43.25 C 66.695312 43.625 66.695312 44 66.695312 44.375 C 66.695312 45.109375 66.695312 45.84375 66.695312 46.578125 C 66.695312 47.171875 66.695312 47.773438 66.695312 48.367188 C 66.695312 48.453125 66.695312 48.539062 66.695312 48.625 C 66.695312 48.796875 66.695312 48.96875 66.695312 49.140625 C 66.703125 50.757812 66.695312 52.375 66.695312 53.992188 C 66.695312 55.476562 66.695312 56.953125 66.703125 58.429688 C 66.703125 59.953125 66.703125 61.46875 66.703125 62.992188 C 66.703125 63.84375 66.703125 64.695312 66.703125 65.546875 C 66.703125 66.273438 66.703125 67 66.703125 67.726562 C 66.703125 68.101562 66.703125 68.46875 66.703125 68.835938 C 66.703125 69.179688 66.703125 69.515625 66.703125 69.859375 C 66.703125 70.039062 66.703125 70.21875 66.703125 70.398438 C 66.695312 71.359375 66.507812 72.257812 65.90625 73.03125 C 65.84375 73.109375 65.78125 73.195312 65.71875 73.28125 C 65.539062 73.492188 65.367188 73.695312 65.15625 73.875 C 65.0625 73.875 64.96875 73.875 64.875 73.875 C 64.875 73.9375 64.875 74 64.875 74.0625 C 64.726562 74.140625 64.578125 74.21875 64.421875 74.289062 C 64.34375 74.335938 64.257812 74.375 64.171875 74.421875 C 63.804688 74.59375 63.53125 74.640625 63.125 74.640625 C 63.015625 74.640625 62.90625 74.640625 62.796875 74.640625 C 62.671875 74.640625 62.546875 74.640625 62.421875 74.640625 C 62.289062 74.640625 62.164062 74.640625 62.03125 74.640625 C 61.671875 74.640625 61.3125 74.640625 60.953125 74.640625 C 60.648438 74.648438 60.335938 74.648438 60.03125 74.648438 C 59.015625 74.648438 58 74.648438 56.984375 74.65625 C 56.71875 74.65625 56.453125 74.65625 56.1875 74.65625 C 54.546875 74.65625 52.90625 74.664062 51.257812 74.664062 C 50.882812 74.664062 50.5 74.664062 50.117188 74.664062 C 49.976562 74.664062 49.976562 74.664062 49.828125 74.664062 C 48.296875 74.664062 46.765625 74.671875 45.234375 74.671875 C 43.664062 74.679688 42.09375 74.679688 40.523438 74.679688 C 39.640625 74.679688 38.757812 74.679688 37.875 74.6875 C 37.117188 74.6875 36.367188 74.695312 35.617188 74.6875 C 35.234375 74.6875 34.851562 74.6875 34.460938 74.695312 C 34.109375 74.695312 33.757812 74.695312 33.40625 74.695312 C 33.226562 74.695312 33.039062 74.695312 32.851562 74.695312 C 31.898438 74.6875 31.101562 74.40625 30.375 73.78125 C 30.375 73.71875 30.375 73.65625 30.375 73.59375 C 30.296875 73.5625 30.296875 73.5625 30.210938 73.53125 C 29.648438 73.203125 29.34375 72.53125 29.125 71.9375 C 29.054688 71.59375 29.085938 71.53125 29.25 71.25 C 29.28125 71.34375 29.28125 71.34375 29.3125 71.445312 C 29.734375 72.671875 30.265625 73.484375 31.4375 74.09375 C 31.859375 74.296875 32.21875 74.359375 32.6875 74.359375 C 32.851562 74.359375 32.851562 74.359375 33.015625 74.359375 C 33.132812 74.359375 33.257812 74.359375 33.382812 74.359375 C 33.507812 74.359375 33.632812 74.359375 33.765625 74.359375 C 34.117188 74.359375 34.46875 74.359375 34.820312 74.359375 C 35.203125 74.359375 35.585938 74.359375 35.96875 74.359375 C 36.882812 74.367188 37.804688 74.367188 38.726562 74.367188 C 39.15625 74.367188 39.59375 74.367188 40.023438 74.367188 C 41.460938 74.367188 42.90625 74.367188 44.34375 74.367188 C 44.71875 74.367188 45.09375 74.375 45.46875 74.375 C 45.601562 74.375 45.601562 74.375 45.75 74.375 C 47.25 74.375 48.757812 74.375 50.257812 74.375 C 51.804688 74.382812 53.351562 74.382812 54.890625 74.382812 C 55.757812 74.382812 56.625 74.382812 57.492188 74.382812 C 58.234375 74.390625 58.976562 74.390625 59.710938 74.390625 C 60.085938 74.390625 60.46875 74.390625 60.84375 74.390625 C 61.1875 74.390625 61.53125 74.390625 61.875 74.390625 C 62.0625 74.390625 62.242188 74.390625 62.429688 74.390625 C 63.46875 74.382812 64.234375 74.132812 65.0625 73.5 C 65.125 73.5 65.1875 73.5 65.25 73.5 C 65.28125 73.421875 65.28125 73.421875 65.320312 73.34375 C 65.4375 73.125 65.4375 73.125 65.617188 72.914062 C 65.820312 72.648438 65.9375 72.40625 66.0625 72.09375 C 66.101562 72 66.140625 71.90625 66.179688 71.804688 C 66.335938 71.375 66.390625 70.992188 66.390625 70.539062 C 66.390625 70.429688 66.390625 70.328125 66.390625 70.21875 C 66.390625 70.101562 66.390625 69.992188 66.390625 69.875 C 66.390625 69.75 66.390625 69.625 66.390625 69.5 C 66.390625 69.164062 66.390625 68.820312 66.390625 68.484375 C 66.390625 68.117188 66.390625 67.75 66.390625 67.382812 C 66.390625 66.664062 66.390625 65.945312 66.390625 65.234375 C 66.390625 64.648438 66.390625 64.0625 66.390625 63.484375 C 66.390625 61.828125 66.390625 60.171875 66.390625 58.523438 C 66.390625 58.429688 66.390625 58.34375 66.390625 58.25 C 66.390625 58.164062 66.390625 58.070312 66.390625 57.984375 C 66.390625 56.53125 66.390625 55.085938 66.398438 53.640625 C 66.398438 52.15625 66.398438 50.671875 66.398438 49.1875 C 66.398438 48.351562 66.398438 47.515625 66.398438 46.679688 C 66.398438 45.976562 66.398438 45.265625 66.398438 44.554688 C 66.398438 44.1875 66.398438 43.828125 66.398438 43.46875 C 66.398438 43.070312 66.398438 42.679688 66.398438 42.289062 C 66.398438 42.117188 66.398438 42.117188 66.398438 41.945312 C 66.398438 41.117188 66.359375 40.414062 65.8125 39.75 C 65.359375 39.367188 64.84375 39.414062 64.28125 39.40625 C 64.179688 39.40625 64.078125 39.398438 63.96875 39.398438 C 62.890625 39.367188 61.8125 39.359375 60.734375 39.359375 C 60.523438 39.351562 60.304688 39.351562 60.09375 39.351562 C 59.515625 39.351562 58.945312 39.351562 58.367188 39.34375 C 57.765625 39.34375 57.164062 39.34375 56.5625 39.335938 C 55.546875 39.335938 54.539062 39.328125 53.53125 39.328125 C 52.492188 39.320312 51.453125 39.320312 50.414062 39.3125 C 50.351562 39.3125 50.28125 39.3125 50.21875 39.3125 C 49.898438 39.3125 49.570312 39.3125 49.25 39.3125 C 46.585938 39.304688 43.914062 39.289062 41.25 39.28125 C 41.25 39.25 41.25 39.21875 41.25 39.1875 C 44.296875 39.164062 47.335938 39.148438 50.382812 39.132812 C 50.742188 39.132812 51.101562 39.125 51.460938 39.125 C 51.570312 39.125 51.570312 39.125 51.679688 39.125 C 52.835938 39.117188 54 39.109375 55.15625 39.101562 C 56.34375 39.09375 57.53125 39.085938 58.71875 39.085938 C 59.453125 39.078125 60.1875 39.078125 60.921875 39.070312 C 61.484375 39.0625 62.046875 39.0625 62.609375 39.0625 C 62.84375 39.0625 63.070312 39.0625 63.304688 39.054688 C 63.617188 39.054688 63.9375 39.054688 64.25 39.054688 C 64.34375 39.046875 64.429688 39.046875 64.523438 39.046875 C 65.210938 39.054688 65.726562 39.195312 66.21875 39.6875 Z M 66.21875 39.6875 "/>
<path style=" stroke:none;fill-rule:nonzero;fill:rgb(74.117649%,0.784314%,0.392157%);fill-opacity:1;" d="M 61.28125 21.90625 C 62.023438 22.632812 62.398438 23.578125 62.710938 24.554688 C 62.820312 24.859375 62.9375 25.148438 63.070312 25.4375 C 63.3125 26 63.53125 26.5625 63.742188 27.125 C 63.890625 27.539062 64.054688 27.9375 64.242188 28.328125 C 64.414062 28.75 64.460938 29.171875 64.40625 29.625 C 64.164062 30.21875 63.835938 30.453125 63.28125 30.75 C 63.023438 30.859375 62.757812 30.945312 62.484375 31.023438 C 62.335938 31.070312 62.1875 31.117188 62.039062 31.164062 C 61.96875 31.1875 61.890625 31.21875 61.8125 31.242188 C 61.351562 31.390625 60.898438 31.570312 60.445312 31.742188 C 60.125 31.867188 59.796875 31.976562 59.46875 32.085938 C 59.085938 32.210938 58.710938 32.34375 58.328125 32.476562 C 57.804688 32.664062 57.28125 32.84375 56.75 33.015625 C 56.34375 33.148438 55.953125 33.304688 55.554688 33.46875 C 55.195312 33.609375 54.828125 33.726562 54.46875 33.84375 C 54.21875 33.929688 53.96875 34.015625 53.71875 34.109375 C 53.21875 34.289062 52.71875 34.46875 52.21875 34.640625 C 51.054688 35.039062 51.054688 35.039062 49.90625 35.492188 C 49.671875 35.59375 49.445312 35.679688 49.203125 35.757812 C 48.773438 35.898438 48.335938 36.046875 47.90625 36.203125 C 47.789062 36.242188 47.789062 36.242188 47.664062 36.28125 C 46.4375 36.71875 45.203125 37.164062 43.976562 37.609375 C 43.640625 37.726562 43.304688 37.851562 42.96875 37.96875 C 42.585938 38.101562 42.234375 38.265625 41.882812 38.453125 C 41.71875 38.53125 41.71875 38.53125 41.445312 38.632812 C 41.382812 38.65625 41.3125 38.6875 41.25 38.71875 C 41.21875 38.8125 41.1875 38.90625 41.15625 39 C 40.914062 39.109375 40.914062 39.109375 40.6875 39.1875 C 40.9375 38.5625 41.609375 38.195312 42.203125 37.929688 C 42.304688 37.882812 42.414062 37.84375 42.523438 37.804688 C 42.578125 37.78125 42.640625 37.757812 42.703125 37.734375 C 43.5625 37.398438 44.4375 37.09375 45.3125 36.78125 C 45.5 36.71875 45.6875 36.65625 45.875 36.585938 C 46.726562 36.28125 47.578125 35.984375 48.4375 35.679688 C 48.710938 35.585938 48.976562 35.492188 49.25 35.398438 C 49.34375 35.359375 49.34375 35.359375 49.445312 35.328125 C 50.351562 35.007812 51.257812 34.671875 52.164062 34.335938 C 52.914062 34.046875 53.671875 33.78125 54.4375 33.523438 C 55.28125 33.234375 56.117188 32.929688 56.953125 32.625 C 57.882812 32.289062 58.8125 31.953125 59.75 31.625 C 59.84375 31.59375 59.9375 31.5625 60.039062 31.53125 C 60.515625 31.359375 60.992188 31.203125 61.46875 31.039062 C 61.710938 30.960938 61.953125 30.875 62.195312 30.789062 C 62.367188 30.734375 62.539062 30.679688 62.710938 30.617188 C 63.523438 30.351562 63.523438 30.351562 64.03125 29.71875 C 64.179688 28.914062 63.90625 28.257812 63.585938 27.53125 C 63.492188 27.3125 63.398438 27.085938 63.304688 26.867188 C 63.28125 26.8125 63.25 26.75 63.226562 26.695312 C 63.046875 26.265625 62.867188 25.828125 62.695312 25.390625 C 62.671875 25.328125 62.640625 25.265625 62.617188 25.203125 C 62.523438 24.953125 62.421875 24.703125 62.328125 24.460938 C 61.828125 23.015625 61.828125 23.015625 60.75 22.03125 C 60.046875 21.953125 59.46875 22.109375 58.804688 22.34375 C 58.671875 22.398438 58.671875 22.398438 58.523438 22.445312 C 58.226562 22.554688 57.921875 22.664062 57.625 22.765625 C 57.414062 22.84375 57.203125 22.914062 56.992188 22.992188 C 56.492188 23.171875 55.984375 23.351562 55.484375 23.53125 C 55.132812 23.65625 54.789062 23.78125 54.4375 23.90625 C 54.125 24.015625 53.8125 24.125 53.507812 24.234375 C 52.648438 24.546875 51.78125 24.84375 50.921875 25.140625 C 49.921875 25.476562 48.929688 25.828125 47.9375 26.179688 C 47.09375 26.484375 46.242188 26.78125 45.390625 27.070312 C 44.289062 27.445312 43.1875 27.835938 42.09375 28.234375 C 42.007812 28.257812 41.929688 28.289062 41.84375 28.320312 C 41.5 28.445312 41.164062 28.5625 40.820312 28.6875 C 36.289062 30.304688 36.289062 30.304688 34.507812 30.921875 C 33.257812 31.34375 32.015625 31.78125 30.78125 32.21875 C 30.546875 32.296875 30.3125 32.375 30.078125 32.460938 C 29.75 32.570312 29.421875 32.6875 29.101562 32.804688 C 29 32.835938 28.898438 32.875 28.796875 32.90625 C 27.8125 33.234375 27.8125 33.234375 27.09375 33.9375 C 26.914062 34.3125 26.875 34.632812 26.84375 35.046875 C 26.84375 35.15625 26.835938 35.265625 26.828125 35.375 C 26.820312 35.460938 26.820312 35.539062 26.8125 35.625 C 26.78125 35.625 26.75 35.625 26.71875 35.625 C 26.695312 35.398438 26.679688 35.179688 26.65625 34.953125 C 26.65625 34.890625 26.648438 34.828125 26.640625 34.757812 C 26.609375 34.375 26.632812 34.101562 26.8125 33.75 C 26.875 33.75 26.9375 33.75 27 33.75 C 27.007812 33.695312 27.007812 33.640625 27.015625 33.585938 C 27.132812 33.28125 27.289062 33.1875 27.5625 33 C 27.835938 32.875 28.125 32.78125 28.414062 32.6875 C 28.578125 32.632812 28.75 32.578125 28.914062 32.515625 C 29.046875 32.476562 29.046875 32.476562 29.179688 32.429688 C 29.671875 32.265625 30.164062 32.085938 30.65625 31.914062 C 31.117188 31.75 31.578125 31.601562 32.046875 31.46875 C 32.320312 31.382812 32.5625 31.257812 32.8125 31.125 C 32.9375 31.078125 33.0625 31.039062 33.1875 30.992188 C 33.265625 30.96875 33.34375 30.945312 33.414062 30.921875 C 33.5 30.898438 33.578125 30.867188 33.65625 30.84375 C 33.8125 30.789062 33.96875 30.742188 34.132812 30.6875 C 34.210938 30.65625 34.289062 30.632812 34.375 30.601562 C 34.546875 30.546875 34.710938 30.492188 34.882812 30.4375 C 35.25 30.3125 35.609375 30.195312 35.976562 30.070312 C 36.070312 30.039062 36.164062 30.007812 36.265625 29.976562 C 36.382812 29.9375 36.382812 29.9375 36.5 29.898438 C 36.765625 29.804688 37.03125 29.710938 37.296875 29.609375 C 37.65625 29.46875 38.023438 29.335938 38.382812 29.203125 C 38.5 29.164062 38.5 29.164062 38.609375 29.117188 C 39.046875 28.960938 39.476562 28.804688 39.914062 28.664062 C 40.273438 28.546875 40.632812 28.421875 40.984375 28.296875 C 41.0625 28.265625 41.148438 28.242188 41.226562 28.210938 C 41.9375 27.960938 42.640625 27.703125 43.34375 27.445312 C 43.820312 27.265625 44.304688 27.109375 44.804688 26.96875 C 45.070312 26.882812 45.3125 26.75 45.5625 26.625 C 45.757812 26.554688 45.953125 26.492188 46.15625 26.429688 C 46.5625 26.289062 46.96875 26.140625 47.367188 25.992188 C 47.640625 25.90625 47.90625 25.820312 48.171875 25.742188 C 48.625 25.601562 49.070312 25.453125 49.515625 25.296875 C 49.679688 25.234375 49.84375 25.179688 50.007812 25.125 C 50.09375 25.09375 50.179688 25.0625 50.265625 25.03125 C 50.734375 24.867188 51.203125 24.703125 51.671875 24.539062 C 51.757812 24.507812 51.84375 24.476562 51.929688 24.445312 C 52.429688 24.273438 52.921875 24.109375 53.429688 23.96875 C 53.640625 23.90625 53.640625 23.90625 53.90625 23.765625 C 54.226562 23.609375 54.539062 23.515625 54.875 23.421875 C 55.109375 23.34375 55.34375 23.265625 55.578125 23.179688 C 56.171875 22.960938 56.765625 22.765625 57.367188 22.570312 C 57.828125 22.414062 58.28125 22.25 58.734375 22.0625 C 59.5625 21.726562 60.429688 21.515625 61.28125 21.90625 Z M 61.28125 21.90625 "/>
<path style=" stroke:none;fill-rule:nonzero;fill:rgb(71.764708%,1.176471%,0.784314%);fill-opacity:1;" d="M 35.117188 66.828125 C 35.203125 66.828125 35.296875 66.828125 35.390625 66.828125 C 35.492188 66.828125 35.59375 66.828125 35.695312 66.828125 C 35.804688 66.828125 35.90625 66.828125 36.015625 66.828125 C 36.375 66.828125 36.734375 66.828125 37.09375 66.828125 C 37.351562 66.828125 37.601562 66.820312 37.859375 66.820312 C 38.632812 66.820312 39.398438 66.820312 40.171875 66.820312 C 40.382812 66.820312 40.601562 66.820312 40.820312 66.820312 C 42.171875 66.8125 43.515625 66.8125 44.867188 66.8125 C 45.179688 66.8125 45.492188 66.8125 45.804688 66.8125 C 45.882812 66.8125 45.960938 66.8125 46.039062 66.8125 C 47.296875 66.8125 48.5625 66.804688 49.820312 66.804688 C 51.109375 66.796875 52.398438 66.796875 53.695312 66.796875 C 54.421875 66.796875 55.140625 66.796875 55.867188 66.789062 C 56.484375 66.789062 57.101562 66.789062 57.726562 66.789062 C 58.039062 66.789062 58.351562 66.789062 58.671875 66.789062 C 59.007812 66.78125 59.351562 66.789062 59.695312 66.789062 C 59.796875 66.789062 59.890625 66.78125 60 66.78125 C 60.742188 66.789062 60.742188 66.789062 61.09375 67.0625 C 61.3125 67.3125 61.3125 67.3125 61.429688 67.578125 C 61.398438 68.015625 61.15625 68.242188 60.84375 68.53125 C 60.617188 68.640625 60.484375 68.640625 60.234375 68.640625 C 60.140625 68.640625 60.054688 68.640625 59.960938 68.640625 C 59.859375 68.640625 59.765625 68.640625 59.664062 68.640625 C 59.5 68.640625 59.5 68.640625 59.34375 68.640625 C 58.992188 68.640625 58.632812 68.640625 58.28125 68.640625 C 58.03125 68.640625 57.78125 68.640625 57.523438 68.640625 C 56.90625 68.640625 56.296875 68.640625 55.679688 68.640625 C 55.179688 68.640625 54.679688 68.640625 54.171875 68.640625 C 52.757812 68.640625 51.335938 68.640625 49.921875 68.640625 C 49.84375 68.640625 49.765625 68.640625 49.6875 68.640625 C 49.609375 68.640625 49.53125 68.640625 49.453125 68.640625 C 48.210938 68.640625 46.96875 68.640625 45.726562 68.648438 C 44.453125 68.648438 43.179688 68.648438 41.90625 68.648438 C 41.195312 68.648438 40.476562 68.648438 39.757812 68.648438 C 39.148438 68.648438 38.539062 68.648438 37.929688 68.648438 C 37.617188 68.648438 37.3125 68.648438 37 68.648438 C 36.664062 68.648438 36.328125 68.648438 35.984375 68.648438 C 35.890625 68.648438 35.789062 68.648438 35.6875 68.648438 C 35.601562 68.648438 35.507812 68.648438 35.414062 68.648438 C 35.335938 68.648438 35.257812 68.648438 35.179688 68.648438 C 34.945312 68.625 34.796875 68.554688 34.59375 68.4375 C 34.59375 68.375 34.59375 68.3125 34.59375 68.25 C 34.679688 68.25 34.679688 68.25 34.757812 68.25 C 38.015625 68.257812 41.273438 68.265625 44.539062 68.265625 C 44.929688 68.273438 45.320312 68.273438 45.710938 68.273438 C 45.789062 68.273438 45.867188 68.273438 45.945312 68.273438 C 47.203125 68.273438 48.46875 68.273438 49.726562 68.28125 C 51.023438 68.28125 52.3125 68.28125 53.609375 68.289062 C 54.40625 68.289062 55.203125 68.289062 56.007812 68.289062 C 56.554688 68.289062 57.101562 68.296875 57.648438 68.289062 C 57.960938 68.289062 58.28125 68.289062 58.59375 68.296875 C 58.9375 68.296875 59.28125 68.296875 59.625 68.296875 C 59.71875 68.296875 59.820312 68.296875 59.921875 68.296875 C 60.453125 68.304688 60.453125 68.304688 60.90625 68.078125 C 61.046875 67.875 61.046875 67.875 61.085938 67.632812 C 61.054688 67.398438 61.054688 67.398438 60.859375 67.25 C 60.421875 67.0625 60.007812 67.085938 59.53125 67.09375 C 59.375 67.09375 59.375 67.09375 59.210938 67.085938 C 58.859375 67.085938 58.507812 67.09375 58.15625 67.09375 C 57.90625 67.09375 57.648438 67.09375 57.398438 67.09375 C 56.78125 67.09375 56.164062 67.09375 55.554688 67.09375 C 54.835938 67.09375 54.117188 67.09375 53.398438 67.09375 C 52.125 67.09375 50.84375 67.09375 49.570312 67.101562 C 48.328125 67.101562 47.085938 67.101562 45.84375 67.101562 C 45.765625 67.101562 45.695312 67.101562 45.617188 67.101562 C 45.460938 67.101562 45.304688 67.101562 45.148438 67.101562 C 45.039062 67.101562 45.039062 67.101562 44.921875 67.101562 C 44.84375 67.101562 44.773438 67.101562 44.695312 67.101562 C 43.507812 67.101562 42.328125 67.101562 41.148438 67.101562 C 40.71875 67.109375 40.289062 67.109375 39.859375 67.109375 C 39.179688 67.109375 38.5 67.109375 37.820312 67.109375 C 37.507812 67.109375 37.203125 67.109375 36.890625 67.109375 C 36.554688 67.109375 36.21875 67.109375 35.882812 67.109375 C 35.734375 67.109375 35.734375 67.109375 35.578125 67.109375 C 35.492188 67.109375 35.398438 67.109375 35.3125 67.109375 C 35.234375 67.109375 35.15625 67.109375 35.070312 67.109375 C 34.859375 67.117188 34.859375 67.117188 34.59375 67.21875 C 34.5625 67.28125 34.53125 67.34375 34.5 67.40625 C 34.4375 67.40625 34.375 67.40625 34.3125 67.40625 C 34.28125 67.5 34.25 67.59375 34.21875 67.6875 C 34.1875 67.625 34.15625 67.5625 34.125 67.5 C 34.554688 66.835938 34.554688 66.835938 35.117188 66.828125 Z M 35.117188 66.828125 "/>
<path style=" stroke:none;fill-rule:nonzero;fill:rgb(73.725492%,0.392157%,0.392157%);fill-opacity:1;" d="M 42.65625 29.8125 C 42.867188 29.953125 43.054688 30.101562 43.25 30.257812 C 43.304688 30.304688 43.359375 30.351562 43.421875 30.398438 C 43.601562 30.546875 43.789062 30.695312 43.96875 30.84375 C 45.773438 32.328125 45.773438 32.328125 47.71875 33.609375 C 47.9375 33.773438 47.945312 33.859375 48 34.125 C 47.179688 34.46875 46.335938 34.765625 45.5 35.070312 C 45.25 35.15625 45.007812 35.242188 44.765625 35.328125 C 41.492188 36.507812 41.492188 36.507812 40.257812 35.945312 C 39.828125 35.695312 39.46875 35.382812 39.09375 35.0625 C 37.523438 33.734375 37.523438 33.734375 35.789062 32.648438 C 35.585938 32.5 35.578125 32.398438 35.53125 32.15625 C 36.515625 31.757812 37.5 31.382812 38.5 31.039062 C 38.640625 30.984375 38.78125 30.9375 38.921875 30.890625 C 39.53125 30.679688 40.132812 30.46875 40.742188 30.25 C 40.828125 30.226562 40.914062 30.195312 41.007812 30.164062 C 41.164062 30.109375 41.320312 30.054688 41.476562 30 C 42.3125 29.703125 42.3125 29.703125 42.65625 29.8125 Z M 41.4375 30.28125 C 41.3125 30.328125 41.179688 30.375 41.054688 30.414062 C 40.945312 30.453125 40.945312 30.453125 40.828125 30.484375 C 40.75 30.515625 40.671875 30.539062 40.59375 30.5625 C 38.984375 31.085938 37.398438 31.65625 35.8125 32.25 C 35.875 32.28125 35.9375 32.3125 36 32.34375 C 36 32.40625 36 32.46875 36 32.53125 C 36.203125 32.679688 36.203125 32.679688 36.453125 32.828125 C 36.539062 32.875 36.625 32.921875 36.710938 32.976562 C 36.921875 33.109375 36.921875 33.109375 37.125 33.09375 C 37.125 33.15625 37.125 33.21875 37.125 33.28125 C 37.25 33.367188 37.382812 33.453125 37.515625 33.539062 C 37.921875 33.8125 38.289062 34.148438 38.664062 34.460938 C 38.726562 34.515625 38.796875 34.570312 38.859375 34.625 C 38.921875 34.671875 38.976562 34.71875 39.039062 34.765625 C 39.179688 34.890625 39.179688 34.890625 39.375 34.875 C 39.375 34.9375 39.375 35 39.375 35.0625 C 39.976562 35.65625 40.742188 36.015625 41.59375 36.03125 C 42.1875 36.023438 42.679688 35.875 43.234375 35.664062 C 43.320312 35.632812 43.414062 35.601562 43.507812 35.5625 C 43.789062 35.460938 44.070312 35.359375 44.34375 35.25 C 44.429688 35.21875 44.507812 35.1875 44.59375 35.15625 C 44.882812 35.039062 45.179688 34.929688 45.46875 34.8125 C 45.867188 34.65625 46.273438 34.507812 46.6875 34.375 C 46.890625 34.304688 47.101562 34.234375 47.304688 34.15625 C 47.40625 34.117188 47.515625 34.070312 47.625 34.03125 C 47.625 33.9375 47.625 33.84375 47.625 33.75 C 47.570312 33.71875 47.507812 33.695312 47.453125 33.664062 C 46.570312 33.21875 45.632812 32.625 44.945312 31.90625 C 44.820312 31.757812 44.820312 31.757812 44.625 31.78125 C 44.578125 31.640625 44.578125 31.640625 44.53125 31.5 C 44.3125 31.335938 44.101562 31.179688 43.875 31.023438 C 43.226562 30.585938 43.226562 30.585938 43.125 30.375 C 42.96875 30.28125 42.8125 30.1875 42.65625 30.09375 C 42.609375 30.046875 42.609375 30.046875 42.5625 30 C 42.09375 29.953125 41.84375 30.0625 41.4375 30.28125 Z M 41.4375 30.28125 "/>
<path style=" stroke:none;fill-rule:nonzero;fill:rgb(74.117649%,0.784314%,0.392157%);fill-opacity:1;" d="M 56.15625 25.03125 C 56.367188 25.179688 56.367188 25.179688 56.578125 25.390625 C 56.945312 25.734375 57.3125 26.0625 57.71875 26.367188 C 58.265625 26.796875 58.804688 27.234375 59.34375 27.679688 C 59.820312 28.0625 60.3125 28.421875 60.828125 28.757812 C 60.984375 28.867188 60.984375 28.867188 61.21875 29.0625 C 61.21875 29.1875 61.21875 29.3125 61.21875 29.4375 C 60.3125 29.773438 59.414062 30.109375 58.5 30.421875 C 58.0625 30.578125 57.632812 30.734375 57.203125 30.898438 C 57.03125 30.960938 57.03125 30.960938 56.859375 31.03125 C 56.632812 31.117188 56.40625 31.203125 56.179688 31.289062 C 56.078125 31.328125 55.96875 31.367188 55.867188 31.40625 C 55.773438 31.445312 55.679688 31.476562 55.585938 31.515625 C 55.1875 31.632812 54.882812 31.664062 54.515625 31.46875 C 54.4375 31.40625 54.359375 31.34375 54.273438 31.28125 C 54.1875 31.210938 54.09375 31.148438 54.007812 31.078125 C 53.65625 30.796875 53.3125 30.507812 52.976562 30.210938 C 51.84375 29.242188 50.648438 28.390625 49.40625 27.5625 C 49.414062 27.390625 49.414062 27.390625 49.5 27.1875 C 49.726562 27.078125 49.9375 26.992188 50.171875 26.914062 C 50.242188 26.890625 50.3125 26.867188 50.390625 26.84375 C 50.617188 26.765625 50.84375 26.6875 51.078125 26.609375 C 51.234375 26.5625 51.390625 26.507812 51.546875 26.453125 C 51.789062 26.367188 52.03125 26.289062 52.265625 26.210938 C 52.765625 26.039062 53.265625 25.859375 53.765625 25.679688 C 53.851562 25.648438 53.851562 25.648438 53.945312 25.617188 C 54.226562 25.507812 54.507812 25.40625 54.789062 25.304688 C 54.882812 25.265625 54.984375 25.234375 55.085938 25.195312 C 55.171875 25.164062 55.257812 25.132812 55.34375 25.101562 C 55.625 25.023438 55.867188 25.007812 56.15625 25.03125 Z M 55.34375 25.34375 C 55.265625 25.367188 55.1875 25.390625 55.109375 25.414062 C 54.835938 25.5 54.835938 25.5 54.570312 25.625 C 54.007812 25.867188 53.429688 26.046875 52.859375 26.242188 C 52.742188 26.28125 52.617188 26.328125 52.5 26.367188 C 51.859375 26.585938 51.21875 26.804688 50.578125 27.015625 C 50.273438 27.117188 49.984375 27.242188 49.6875 27.375 C 50.007812 27.734375 50.390625 27.992188 50.8125 28.21875 C 50.875 28.21875 50.9375 28.21875 51 28.21875 C 51 28.28125 51 28.34375 51 28.40625 C 51.125 28.492188 51.257812 28.578125 51.390625 28.664062 C 51.796875 28.9375 52.164062 29.273438 52.539062 29.585938 C 52.601562 29.640625 52.671875 29.695312 52.734375 29.75 C 52.796875 29.796875 52.851562 29.84375 52.914062 29.890625 C 53.054688 30.015625 53.054688 30.015625 53.25 30 C 53.28125 30.09375 53.3125 30.1875 53.34375 30.28125 C 53.554688 30.453125 53.554688 30.453125 53.8125 30.617188 C 54.273438 30.921875 54.273438 30.921875 54.375 31.125 C 54.679688 31.359375 54.679688 31.359375 55.046875 31.382812 C 55.414062 31.289062 55.773438 31.15625 56.132812 31.03125 C 56.210938 31 56.296875 30.976562 56.375 30.945312 C 57.34375 30.601562 58.304688 30.257812 59.265625 29.90625 C 59.796875 29.71875 60.320312 29.53125 60.84375 29.34375 C 60.71875 29.0625 60.59375 28.890625 60.359375 28.703125 C 60.296875 28.65625 60.234375 28.601562 60.171875 28.554688 C 60.078125 28.476562 60.078125 28.476562 59.976562 28.398438 C 59.90625 28.34375 59.84375 28.289062 59.773438 28.234375 C 59.570312 28.070312 59.359375 27.914062 59.15625 27.75 C 59.101562 27.703125 59.039062 27.65625 58.984375 27.609375 C 58.765625 27.445312 58.554688 27.28125 58.34375 27.109375 C 57.835938 26.71875 57.335938 26.3125 56.84375 25.90625 C 56.179688 25.296875 56.179688 25.296875 55.34375 25.34375 Z M 55.34375 25.34375 "/>
<path style=" stroke:none;fill-rule:nonzero;fill:rgb(72.156864%,0.392157%,0%);fill-opacity:1;" d="M 26.8125 36 C 26.84375 36 26.875 36 26.90625 36 C 27.015625 37.007812 27.109375 38.015625 27.1875 39.023438 C 27.203125 39.21875 27.210938 39.414062 27.226562 39.609375 C 27.25 39.914062 27.273438 40.210938 27.296875 40.515625 C 27.320312 40.8125 27.34375 41.101562 27.367188 41.398438 C 27.375 41.492188 27.375 41.578125 27.382812 41.671875 C 27.421875 42.15625 27.5 42.507812 27.75 42.9375 C 27.75 43 27.75 43.0625 27.75 43.125 C 28.203125 43.351562 28.679688 43.515625 29.15625 43.6875 C 29.15625 52.78125 29.15625 61.875 29.15625 71.25 C 29.125 71.25 29.09375 71.25 29.0625 71.25 C 29.03125 62.21875 29 53.179688 28.96875 43.875 C 28.78125 43.84375 28.59375 43.8125 28.40625 43.78125 C 27.882812 43.570312 27.523438 43.25 27.28125 42.734375 C 27.15625 42.390625 27.125 42.039062 27.085938 41.671875 C 27.078125 41.59375 27.070312 41.515625 27.0625 41.4375 C 27 40.773438 26.96875 40.101562 26.945312 39.4375 C 26.921875 38.921875 26.875 38.421875 26.804688 37.90625 C 26.601562 36.421875 26.601562 36.421875 26.8125 36 Z M 26.8125 36 "/>
<path style=" stroke:none;fill-rule:nonzero;fill:rgb(73.333335%,0.784314%,0.392157%);fill-opacity:1;" d="M 32.289062 35.148438 C 32.789062 35.445312 33.09375 35.820312 33.28125 36.375 C 33.335938 36.9375 33.21875 37.320312 32.90625 37.78125 C 32.421875 38.234375 32.03125 38.390625 31.375 38.375 C 30.890625 38.320312 30.46875 38.164062 30.125 37.804688 C 29.742188 37.28125 29.640625 36.820312 29.71875 36.1875 C 29.890625 35.6875 30.203125 35.40625 30.65625 35.15625 C 31.171875 34.984375 31.773438 34.953125 32.289062 35.148438 Z M 30 36 C 29.90625 36.476562 29.898438 36.984375 30.09375 37.4375 C 30.429688 37.875 30.867188 38.070312 31.40625 38.15625 C 31.976562 38.140625 32.421875 37.984375 32.828125 37.578125 C 33.039062 37.257812 33.046875 37.078125 33.046875 36.703125 C 33.046875 36.601562 33.046875 36.5 33.046875 36.390625 C 32.96875 35.90625 32.710938 35.6875 32.328125 35.40625 C 31.476562 34.960938 30.585938 35.28125 30 36 Z M 30 36 "/>
<path style=" stroke:none;fill-rule:nonzero;fill:rgb(76.078433%,3.529412%,3.137255%);fill-opacity:1;" d="M 26.625 34.40625 C 26.71875 34.40625 26.8125 34.40625 26.90625 34.40625 C 26.90625 34.671875 26.914062 34.929688 26.914062 35.1875 C 26.914062 35.265625 26.914062 35.34375 26.914062 35.414062 C 26.914062 35.976562 26.914062 35.976562 26.8125 36.1875 C 26.75 36.1875 26.6875 36.1875 26.625 36.1875 C 26.625 35.601562 26.625 35.015625 26.625 34.40625 Z M 26.625 34.40625 "/>
<path style=" stroke:none;fill-rule:nonzero;fill:rgb(76.078433%,3.921569%,2.745098%);fill-opacity:1;" d="M 34.3125 67.40625 C 34.34375 67.40625 34.375 67.40625 34.40625 67.40625 C 34.421875 67.601562 34.445312 67.789062 34.460938 67.984375 C 34.476562 68.039062 34.484375 68.09375 34.5 68.15625 C 34.5625 68.1875 34.625 68.21875 34.6875 68.25 C 34.59375 68.296875 34.59375 68.296875 34.5 68.34375 C 34.304688 68.179688 34.304688 68.179688 34.125 67.96875 C 34.148438 67.742188 34.210938 67.609375 34.3125 67.40625 Z M 34.3125 67.40625 "/>
</g>
</svg>
